<?xml version="1.0" encoding="UTF-8"?>
<svg id="Ebene_2" data-name="Ebene 2" xmlns="http://www.w3.org/2000/svg" viewBox="23.5 23.5 347.54 451">
  <defs>
    <style>
      .cls-1 {
        stroke-width: 0px;
      }
    </style>
  </defs>
  <path class="cls-1" d="m133.58,39.16c-10.28-14.54-29.46-19.53-45.83-12.53-27.96,11.95-61.17,35.52-63.68,79.48-11.43,200.38,151.26,335.38,218.35,361.56,37.46,14.62,82.58,4.71,114.14-19.43,11.38-8.71,16.77-23.46,13.57-37.43-6.18-26.96-20.54-46.29-33.55-58.99-12.04-11.75-30.28-13.99-45.02-5.88-14.25,7.84-34.36,15.04-53.49,8.47-78.84-27.1-109.99-117.62-119.79-161.18-4.25-18.88,11.71-33.7,27.65-44.23,12.46-8.23,18.54-23.27,15.87-37.96-4.88-26.91-14.36-52.28-28.21-71.88Z" fill="currentColor"/>
</svg>