<?xml version="1.0" encoding="UTF-8"?>
<svg id="Ebene_4" data-name="Ebene 4" xmlns="http://www.w3.org/2000/svg" viewBox="23.5 23.5 633 451">
  <defs>
    <style>
      .cls-1 {
        stroke-width: 0px;
      }
    </style>
  </defs>
  <path class="cls-1" d="m44.1,66.24l276.26,185.42c11.93,8.01,27.36,8.01,39.29,0l276.26-185.42s.07-.04.1-.06c-19.12-25.89-49.85-42.69-84.5-42.69H128.5c-34.66,0-65.38,16.8-84.5,42.69.03.02.07.04.1.06Z" fill="currentColor"/>
  <path class="cls-1" d="m647.78,86.57l-275.04,184.6c-9.94,6.67-21.34,10.01-32.74,10.01s-22.8-3.34-32.74-10.01L32.22,86.57c-5.6,12.84-8.72,27.02-8.72,41.93v241c0,57.99,47.01,105,105,105h423c57.99,0,105-47.01,105-105v-241c0-14.91-3.12-29.08-8.72-41.93Z" fill="currentColor"/>
</svg>