<?xml version="1.0" encoding="UTF-8"?>
<svg id="Ebene_1" xmlns="http://www.w3.org/2000/svg" viewBox="14.75 0 474.5 474.5">
    <defs>
        <style>
      .cls-1 {
        stroke-width: 0px;
      }

      .cls-2 {
        fill: none;
        stroke: currentColor;
        stroke-linecap: round;
        stroke-linejoin: round;
        stroke-width: 47px;
      }
        </style>
    </defs>
    <path class="cls-1" d="M199.95,322.54c-4.59,4.59-10.6,6.88-16.62,6.88s-12.03-2.29-16.62-6.88c-9.18-9.18-9.18-24.06,0-33.23l149.59-149.59c-4.86-1.54-10.03-2.37-15.4-2.37H65.75c-28.17,0-51,22.83-51,51v235.16c0,28.17,22.83,51,51,51h235.16c28.17,0,51-22.83,51-51v-235.16c0-5.37-.83-10.54-2.37-15.4l-149.59,149.59Z" fill="currentColor"/>
    <line class="cls-2" x1="465.75" y1="23.5" x2="336.97" y2="152.28"/>
    <path class="cls-1" d="M336.43,6.91c-4.25,4.25-6.88,10.13-6.88,16.62,0,12.98,10.53,23.51,23.5,23.5l89.22-.03-.03,89.22c-.02,12.97,10.52,23.5,23.5,23.5s23.5-10.52,23.5-23.5l.03-112.72c0-6.23-2.47-12.2-6.88-16.62-4.41-4.41-10.39-6.88-16.62-6.88l-112.72.03c-6.49,0-12.37,2.63-16.62,6.88Z" fill="currentColor"/>
</svg>