<?xml version="1.0" encoding="UTF-8"?>
<svg id="Ebene_2" xmlns="http://www.w3.org/2000/svg" viewBox="23.5 23.5 396 451">
  <defs>
    <style>
      .cls-1 {
        stroke-width: 0px;
      }
    </style>
  </defs>
  <path class="cls-1" d="m266.25,141.5c0,19.47,15.78,35.25,35.25,35.25h103.23c-3.57-5.55-7.74-10.75-12.47-15.49l-110.52-110.52c-4.74-4.74-9.94-8.91-15.49-12.47v103.23Z" fill="currentColor"/>
  <path class="cls-1" d="m301.5,200.25c-32.45,0-58.75-26.3-58.75-58.75V27.44c-8.61-2.59-17.62-3.94-26.77-3.94h-99.48c-51.36,0-93,41.64-93,93v265c0,51.36,41.64,93,93,93h210c51.36,0,93-41.64,93-93v-154.48c0-9.15-1.35-18.16-3.94-26.77h-114.06Z" fill="currentColor"/>
</svg>