<?xml version="1.0" encoding="UTF-8"?>
<svg id="Ebene_1" data-name="Ebene 1" xmlns="http://www.w3.org/2000/svg" viewBox="0 0 460.33 451">
  <path d="M442.45,128.52c-17.51-37.97-46.93-70.24-84-92.95-3.91-2.4-7.91-4.69-11.99-6.87C312.32,10.46,272.56,0,230.11,0c-.73,0-1.46,0-2.19,0C101.88,1.08,0,94.51,0,209.72c0,65.93,33.44,124.74,85.69,163.25v57.49c0,16.46,18.4,26.21,32.02,16.98l52.11-35.31c18.44,4.56,37.89,7.17,57.9,7.36.8,0,1.59.01,2.39.01,41.35,0,80.15-9.94,113.69-27.33,4.04-2.1,8.01-4.3,11.9-6.61,33.83-20.11,61.5-48.1,79.88-81.11,15.84-28.46,24.76-60.65,24.76-94.73,0-28.8-6.36-56.23-17.88-81.2ZM278.45,49.25c10.88,0,19.69,8.82,19.69,19.69s-8.82,19.69-19.69,19.69-19.69-8.82-19.69-19.69,8.82-19.69,19.69-19.69ZM213.11,88.4c5.44-9.42,17.48-12.65,26.9-7.21l29.54,17.05c5.51,3.18,12.29,3.18,17.8,0l29.54-17.05c9.52-5.49,21.71-2.14,27.07,7.5,5.24,9.44,1.7,21.37-7.65,26.77l-29.26,16.89c-5.51,3.18-8.9,9.05-8.9,15.41v34.11c0,10.99-9,19.87-20.03,19.69-10.8-.18-19.35-9.21-19.35-20.01v-33.78c0-6.36-3.39-12.23-8.9-15.41l-29.54-17.05c-9.42-5.44-12.65-17.48-7.21-26.9ZM162.19,104.48v-34.11c0-10.99,9-19.87,20.03-19.69,10.8.18,19.35,9.21,19.35,20.01v33.78c0,6.36,3.39,12.23,8.9,15.41l29.24,16.88c9.38,5.42,12.92,17.69,7.51,27.07-3.65,6.32-10.27,9.85-17.07,9.85-3.34,0-6.73-.85-9.83-2.64l-29.54-17.05c-5.51-3.18-12.29-3.18-17.8,0l-29.54,17.05c-3.1,1.79-6.49,2.64-9.83,2.64-6.81,0-13.42-3.53-17.07-9.85-5.42-9.38-1.88-21.65,7.5-27.07l29.24-16.88c5.51-3.18,8.9-9.05,8.9-15.41ZM132.36,77.84c10.88,0,19.69,8.82,19.69,19.69s-8.82,19.69-19.69,19.69-19.69-8.82-19.69-19.69,8.82-19.69,19.69-19.69ZM84.08,258.03c-10.88,0-19.69-8.82-19.69-19.69s8.82-19.69,19.69-19.69,19.69,8.82,19.69,19.69-8.82,19.69-19.69,19.69ZM105.01,215.98l-29.54-17.05c-9.42-5.44-12.65-17.48-7.21-26.9,5.44-9.42,17.48-12.65,26.9-7.21l29.54,17.05c5.51,3.18,12.29,3.18,17.8,0l29.54-17.05c9.42-5.44,21.46-2.21,26.9,7.21,5.44,9.42,2.21,21.46-7.21,26.9l-29.54,17.05c-5.51,3.18-8.9,9.05-8.9,15.41v33.78c0,10.8-8.56,19.83-19.35,20.01-11.03.18-20.03-8.7-20.03-19.69v-34.11c0-6.36-3.39-12.23-8.9-15.41ZM181.88,370.25c-10.88,0-19.69-8.82-19.69-19.69s8.82-19.69,19.69-19.69,19.69,8.82,19.69,19.69-8.82,19.69-19.69,19.69ZM247.22,331.1c-3.65,6.32-10.27,9.85-17.07,9.85-3.34,0-6.73-.85-9.83-2.64l-29.54-17.05c-5.51-3.18-12.29-3.18-17.8,0l-29.54,17.05c-3.1,1.79-6.49,2.64-9.83,2.64-6.81,0-13.42-3.53-17.07-9.85-5.42-9.38-1.88-21.65,7.5-27.07l29.24-16.88c5.51-3.18,8.9-9.05,8.9-15.41v-34.11c0-10.99,9-19.87,20.03-19.69,10.8.18,19.35,9.21,19.35,20.01v33.78c0,6.36,3.39,12.23,8.9,15.41l29.54,17.05c9.42,5.44,12.65,17.48,7.21,26.9ZM298.14,315.02v34.11c0,10.99-9,19.87-20.03,19.69-10.8-.18-19.35-9.21-19.35-20.01v-33.78c0-6.36-3.39-12.23-8.9-15.41l-29.26-16.89c-9.35-5.4-12.9-17.33-7.65-26.77,5.35-9.64,17.55-13,27.07-7.5l29.54,17.05c5.51,3.18,12.29,3.18,17.8,0l29.54-17.05c9.42-5.44,21.46-2.21,26.9,7.21,5.44,9.42,2.21,21.46-7.21,26.9l-29.54,17.05c-5.51,3.18-8.9,9.05-8.9,15.41ZM327.97,341.66c-10.88,0-19.69-8.82-19.69-19.69s8.82-19.69,19.69-19.69,19.69,8.82,19.69,19.69-8.82,19.69-19.69,19.69ZM392.07,247.47c-3.65,6.32-10.27,9.85-17.07,9.85-3.34,0-6.73-.85-9.83-2.64l-29.54-17.05c-5.51-3.18-12.29-3.18-17.8,0l-29.54,17.05c-3.1,1.79-6.49,2.64-9.83,2.64-6.81,0-13.42-3.53-17.07-9.85-5.42-9.38-1.88-21.65,7.5-27.07l29.24-16.88c5.51-3.18,8.9-9.05,8.9-15.41v-34.11c0-10.99,9-19.87,20.03-19.69,10.8.18,19.35,9.21,19.35,20.01v33.78c0,6.36,3.39,12.23,8.9,15.41l29.24,16.88c9.38,5.42,12.92,17.69,7.5,27.07ZM376.25,200.85c-10.88,0-19.69-8.82-19.69-19.69s8.82-19.69,19.69-19.69,19.69,8.82,19.69,19.69-8.82,19.69-19.69,19.69Z" fill="currentColor"/>
</svg>