<?xml version="1.0" encoding="UTF-8"?>
<svg id="Ebene_1" data-name="Ebene 1" xmlns="http://www.w3.org/2000/svg" viewBox="0 0 498 498">
  <defs>
    <style>
      .cls-1 {
        stroke-width: 0px;
      }
    </style>
  </defs>
  <path class="cls-1" d="m425.07,72.93C378.04,25.9,315.51,0,249,0S119.96,25.9,72.93,72.93C25.9,119.96,0,182.49,0,249s25.9,129.04,72.93,176.07c47.03,47.03,109.56,72.93,176.07,72.93s129.04-25.9,176.07-72.93c47.03-47.03,72.93-109.56,72.93-176.07s-25.9-129.04-72.93-176.07Zm-176.07,24.57c17.25,0,31.24,13.99,31.24,31.24s-13.99,31.24-31.24,31.24-31.24-13.99-31.24-31.24,13.99-31.24,31.24-31.24Zm51.4,292.92c0,5.57-4.51,10.08-10.08,10.08h-82.64c-5.57,0-10.08-4.51-10.08-10.08v-29.56c0-5.57,4.51-10.08,10.08-10.08h6.05c2.23,0,4.03-1.8,4.03-4.03v-96.07c0-2.23-1.8-4.03-4.03-4.03h-6.05c-5.57,0-10.08-4.51-10.08-10.08v-29.56c0-5.57,4.51-10.08,10.08-10.08h62.48c5.57,0,10.08,4.51,10.08,10.08v139.74c0,2.23,1.8,4.03,4.03,4.03h6.05c5.57,0,10.08,4.51,10.08,10.08v29.56Z" fill="currentColor"/>
</svg>