<?xml version="1.0" encoding="UTF-8"?>
<svg id="final" xmlns="http://www.w3.org/2000/svg" viewBox="0 0 2484.061926242564368 1461.672999999998865">
  <defs>
    <style>
      .cls-1 {
        fill: #764a41;
      }

      .cls-2 {
        fill: #f78d57;
      }

      .cls-3 {
        fill: #daa345;
      }
    </style>
  </defs>
  <g>
    <circle class="cls-3" cx="570.672955930063836" cy="1102.672999999998865" r="52"/>
    <circle class="cls-1" cx="956.442755930063868" cy="1027.172999999998865" r="52"/>
    <circle class="cls-2" cx="1083.942755930063868" cy="655.336499999999432" r="52"/>
    <circle class="cls-3" cx="825.672955930063836" cy="358.999999999999091" r="52"/>
    <circle class="cls-1" cx="439.903138202867922" cy="434.499999999999091" r="51.99999934318474"/>
    <circle class="cls-2" cx="312.403141423788838" cy="806.336499999999432" r="51.99999934318474"/>
  </g>
  <g>
    <path class="cls-3" d="M724.172955930063836,980.251539062499432l-77.999731147818238-45.032479045805303c-14.542002112316368-8.395700802684587-23.50026882174916-23.911755637886017-23.500268772349045-40.703349290746701l.000000262458343-89.21105027025078c.000000083892701-28.515598256930389-22.59930632297619-52.372263671002656-51.110928739165502-52.848426612934418-29.12578446556472-.486419854147243-52.889071603125558,22.978033910103477-52.889071603125558,51.992570844737202v90.067018230600297c0,16.791566237980078-8.958237749629916,32.307600059595643-23.500202437210646,40.703310854374649l-77.219301834114958,44.58207263615077c-24.772376250410161,14.302173823563862-34.116099292346007,46.712384236197977-19.813224880820599,71.484355993396093,9.631934925693713,16.682102707563899,27.109195615237695,26.007968847978191,45.081068995896203,26.007968847978191,8.8212890625,0,17.76318359375-2.248046875,25.951171875-6.9755859375l78.00069498303219-45.033194103036294c14.541745548251129-8.39558224466964,32.457841048184491-8.39558224466964,46.99958659643562,0l78.00069498303219,45.033194103036294c8.189453125,4.728515625,17.12841796875,6.9755859375,25.951171875,6.9755859375,17.97021484375,0,35.45068359375-9.3271484375,45.08154296875-26.0087890625,14.359375-24.87109375,5.837890625-56.673828125-19.033203125-71.033203125Z"/>
    <path class="cls-1" d="M927.172955930063836,833.027906249999432l-77.999956700370603,45.033406631888283c-14.541872615269313,8.395774694954525-32.458213983989481,8.395774694954525-47.000086599258793,0l-77.999956700370603-45.033406631888283c-25.127223489541393-14.5078216590191-57.332638619012869-5.658258864095842-71.472906964479989,19.809756495329566-13.841315738289268,24.929572282864683-4.479841197872702,56.427490697938993,20.214256271026898,70.684669443049643l77.258693787473021,44.605436919855492c14.541826320539258,8.395747906697579,23.499956875550197,23.91170422531286,23.499956826150083,40.703169189679102l-.000000262460162,89.210252808888981c-.000000083889972,28.515598256930389,22.599306322979828,52.372263671002656,51.110928739170049,52.848426612934418,29.125784465559263.486419854147243,52.889071603120101-22.978033910103477,52.889071603120101-51.992570844737202v-90.066108766097386c0-16.791464863075817,8.958130493490899-32.307421077794061,23.499956700370603-40.703168978783651l78.000043299629397-45.033456630118962c24.87109375-14.359375,33.392578125-46.162109375,19.033203125-71.033203125-14.3583984375-24.8701171875-46.1591796875-33.392578125-71.033203125-19.033203125Z"/>
    <path class="cls-2" d="M1105.890947909983879,758.964107866229824l-77.21803518572051-44.581962890450995c-14.541826257549474-8.395747923576891-23.49995676376966-23.911704206889226-23.499956714369546-40.703169125140448l.000000262460162-89.210741176189913c.000000083889972-28.515598256931298-22.599306322979828-52.372263671004475-51.110928739170049-52.848426612936237-29.125784465559263-.486419854147243-52.889071603120101,22.978033910103477-52.889071603120101,51.992570844737202v90.066596973931155c0,16.791464902419648-8.95813053512029,32.307421147256719-23.499956795740218,40.703169033846279l-77.219723055950453,44.582937179338842c-24.77227870770912,14.302316839632113-34.115915826088894,46.712629141762591-19.81302865744874,71.484578560306545,9.631939253349628,16.682080280255832,27.109187819260114,26.007933096327179,45.081536634139411,26.007933096327179,8.8203125,0,17.7626953125-2.248046875,25.951171875-6.9755859375l77.999956700370603-45.033406631888283c14.541872615269313-8.395774694954525,32.458213983989481-8.395774694954525,47.000086599258793,0l77.999956700370603,45.033406631888283c8.189453125,4.728515625,17.12890625,6.9755859375,25.951171875,6.9755859375,17.972828682510226,0,35.455307014250138-9.329354980303833,45.085448258629185-26.014708655640788,14.296675844730999-24.770674364735896,4.950004896631071-57.178565148900816-19.818628153709142-71.47877722812882Z"/>
    <path class="cls-3" d="M672.172955930063836,481.420972656249432l78.000043219799409,45.03345658402759c14.541826249660517,8.395747925690557,23.499956749770718,23.911704204581838,23.499956700370603,40.703169117057769l-.000000262460162,89.210741186967425c-.000000083889972,28.515598256930389,22.599306322979828,52.372263671002656,51.110928739159135,52.848426612934418,29.125784465570177.486419854148153,52.889071603131015-22.978033910102567,52.889071603131015-51.992570844737202v-90.066596950506209c0-16.791464914973403,8.958130548400732-32.307421169420195,23.499956826170092-40.703169051414989l77.258712882969121-44.605447944635671c24.694086502111531-14.257172413404987,34.055424351530746-45.755007303009734,20.214242277281301-70.684639313671141-14.139827365021119-25.46752806323093-46.341730480329716-34.317603876777866-71.472911986420513-19.80977564602199l-77.999956700370603,45.033406631888283c-14.541872615269313,8.395774694954525-32.458213983989481,8.395774694954525-47.000086599258793,0l-77.999956700370603-45.033406631888283c-24.8701171875-14.36083984375-56.67431640625-5.83837890625-71.033203125,19.033203125-14.359375,24.87109375-5.837890625,56.673828125,19.033203125,71.033203125Z"/>
    <path class="cls-1" d="M443.221295773813836,635.621167968749432c8.8212890625,0,17.763671875-2.248046875,25.95166015625-6.9755859375l77.999956700368784-45.033406631888283c14.541872615268403-8.395774694954525,32.458213983994028-8.395774694954525,47.000086599262431,0l77.999956700368784,45.033406631888283c8.189453125,4.728515625,17.12890625,6.9755859375,25.95166015625,6.9755859375,17.972365919647928,0,35.454868491067828-9.329381533229935,45.08500108547014-26.014779891779654,14.296615280529295-24.770658014955188,4.949923863439835-57.178516969973316-19.81867070552471-71.478706830655938l-77.218033740443389-44.581962052085146c-14.54182625841986-8.395747923342242-23.499956765320348-23.911704207143885-23.499956715920234-40.7031691260363l.000000262459253-89.211229456244837c.000000083892701-28.515598256931298-22.5993063229771-52.372263671003566-51.110928739167321-52.848426612935327-29.12578446556472-.486419854147243-52.889071603123739,22.978033910103477-52.889071603123739,51.992570844737202v90.067085251470417c0,16.791464904407803-8.958130537223951,32.307421150767368-23.499956800558721,40.703169036629333l-77.219085119682859,44.582568853566954c-24.773209564116769,14.302854267236398-34.116710205507843,46.714127621462467-19.812678857260835,71.486657558589286,9.632146300931709,16.681495362345231,27.108814374904796,26.00622242474401,45.080060621252414,26.00622242474401Z"/>
    <path class="cls-2" d="M444.062027533189394,930.053680219736634c28.511622416189311-.47616294193358,51.110928823058202-24.332828356004029,51.110928739165502-52.848426612934418l-.000000262459253-89.211229468217425c-.000000049400114-16.791464912475931,8.958130450712815-32.307421191368121,23.499956700368784-40.703169117057769l78.000043219799409-45.03345658402759c24.87109375-14.359375,33.392578125-46.162109375,19.033203125-71.033203125-14.3603515625-24.8720703125-46.16455078125-33.392578125-71.033203125-19.033203125l-77.999956700368784,45.033406631888283c-14.541872615268403,8.395774694954525-32.458213983994028,8.395774694954525-47.000086599262431,0l-77.999956700368784-45.033406631888283c-24.87109375-14.3603515625-56.673828125-5.8388671875-71.033203125,19.033203125-14.359375,24.87109375-5.837890625,56.673828125,19.033203125,71.033203125l78.000043299631216,45.033456630118962c14.541826206875157,8.395747900989591,23.499956700368784,23.911704115707835,23.499956700368784,40.703168978783651v90.067085328597386c0,29.014536934633725,23.763287137560837,52.478990698884445,52.889071603125558,51.992570844737202Z"/>
  </g>
  <g>
    <path d="M1544.70350983631397,385.386289843749182v329.9404296875h-80.3701171875v-135.830078125h-125.0205078125v135.830078125h-80.3701171875v-329.9404296875h80.3701171875v129.25h125.0205078125v-129.25h80.3701171875Z"/>
    <path d="M1848.31776764881397,603.466367968749182h-181.890625c1.2490234375,16.2958984375,6.5,28.7509765625,15.7451171875,37.365234375,9.23828125,8.62109375,20.599609375,12.9248046875,34.0751953125,12.9248046875,20.048828125,0,33.994140625-8.4599609375,41.830078125-25.3798828125h85.5400390625c-4.3916015625,17.2353515625-12.30078125,32.74609375-23.7353515625,46.5302734375-11.44140625,13.791015625-25.7763671875,24.6015625-43.0048828125,32.4296875-17.2353515625,7.8359375-36.505859375,11.75-57.8095703125,11.75-25.6962890625,0-48.5712890625-5.478515625-68.6201171875-16.4501953125-20.0556640625-10.9638671875-35.7197265625-26.6279296875-47-47-11.2802734375-20.3642578125-16.919921875-44.1796875-16.919921875-71.439453125,0-27.2607421875,5.55859375-51.068359375,16.6845703125-71.4404296875,11.119140625-20.3642578125,26.7099609375-36.0283203125,46.765625-47,20.0478515625-10.9638671875,43.078125-16.4501953125,69.08984375-16.4501953125,25.3798828125,0,47.939453125,5.33203125,67.6796875,15.98046875,19.740234375,10.6552734375,35.1689453125,25.849609375,46.294921875,45.58984375,11.1181640625,19.740234375,16.685546875,42.76953125,16.685546875,69.08984375,0,7.5205078125-.470703125,15.35546875-1.41015625,23.5ZM1767.47792389881397,558.816953906249182c0-13.78515625-4.7001953125-24.7490234375-14.1005859375-32.900390625-9.3994140625-8.14453125-21.1494140625-12.2197265625-35.25-12.2197265625-13.4755859375,0-24.8359375,3.9208984375-34.0751953125,11.75-9.2451171875,7.8349609375-14.9658203125,18.9609375-17.154296875,33.3701171875h100.580078125Z"/>
    <path d="M1972.39589264881397,367.526914843749182v347.7998046875h-80.3701171875v-347.7998046875h80.3701171875Z"/>
    <path d="M2111.04530671131397,367.526914843749182v347.7998046875h-80.3701171875v-347.7998046875h80.3701171875Z"/>
    <path d="M2219.37929108631397,702.636289843749182c-20.5263671875-10.9638671875-36.66015625-26.6279296875-48.41015625-47-11.75-20.3642578125-17.625-44.1796875-17.625-71.439453125,0-26.9443359375,5.9482421875-50.6796875,17.859375-71.205078125,11.904296875-20.5185546875,28.2001953125-36.263671875,48.880859375-47.2353515625,20.6796875-10.9638671875,43.8642578125-16.4501953125,69.5595703125-16.4501953125,25.6884765625,0,48.8798828125,5.486328125,69.5595703125,16.4501953125,20.6806640625,10.9716796875,36.96875,26.716796875,48.880859375,47.2353515625,11.904296875,20.525390625,17.859375,44.2607421875,17.859375,71.205078125,0,26.951171875-6.0361328125,50.6865234375-18.0947265625,71.205078125-12.0654296875,20.525390625-28.515625,36.2705078125-49.349609375,47.234375-20.841796875,10.9716796875-44.107421875,16.4501953125-69.7958984375,16.4501953125-25.6953125,0-48.8056640625-5.478515625-69.32421875-16.4501953125ZM2327.94862702381397,632.606016406249182c10.810546875-11.279296875,16.2158203125-27.4140625,16.2158203125-48.4091796875,0-20.9892578125-5.2509765625-37.1298828125-15.7451171875-48.41015625-10.501953125-11.2802734375-23.4267578125-16.919921875-38.775390625-16.919921875-15.671875,0-28.669921875,5.56640625-39.009765625,16.6845703125-10.33984375,11.1259765625-15.509765625,27.3408203125-15.509765625,48.6455078125,0,20.9951171875,5.0888671875,37.1298828125,15.2744140625,48.4091796875,10.1787109375,11.2802734375,22.94921875,16.9208984375,38.3046875,16.9208984375,15.3486328125,0,28.435546875-5.640625,39.2451171875-16.9208984375Z"/>
    <path d="M1464.333356320694293,789.116773437499432v190.350221201661043c0,34.523425417011822-27.986765978990661,62.510191395995207-62.510191396000664,62.510191395995207h-.000125020509586c-34.523425417010003,0-62.51019139598975-27.986765978983385-62.51019139598975-62.510191395995207v-190.350221201661043h-80.3701171875l-.000000019939762,190.350240500856671c-.000000008260031,78.910571111537138,63.969657121779164,142.880228248532148,142.880228233309026,142.880228248852291h.000285760750558c78.910571114220147.000000000321961,142.88022824636937-63.969657139414267,142.880228236699622-142.880228253632595l-.000000023319444-190.350240496076367h-80.3701171875Z"/>
    <path d="M1821.05800202381397,883.821880468749441c18.330078125,19.9013671875,27.4951171875,47.2353515625,27.4951171875,82.0146484375v153.220703125h-79.900390625v-142.41015625c0-17.5439453125-4.5458984375-31.173828125-13.6298828125-40.8896484375-9.091796875-9.708984375-21.3115234375-14.5703125-36.66015625-14.5703125-15.35546875,0-27.5751953125,4.861328125-36.66015625,14.5703125-9.0908203125,9.7158203125-13.6298828125,23.345703125-13.6298828125,40.8896484375v142.41015625h-80.3701171875v-262.259765625h80.3701171875v34.779296875c8.14453125-11.587890625,19.1083984375-20.7529296875,32.900390625-27.4951171875,13.7841796875-6.7333984375,29.2939453125-10.1044921875,46.5302734375-10.1044921875,30.7041015625,0,55.224609375,9.9501953125,73.5546875,29.8447265625Z"/>
    <path d="M1897.90028718006397,817.081646093749441c-8.9296875-8.2978515625-13.39453125-18.564453125-13.39453125-30.7841796875,0-12.529296875,4.46484375-22.94921875,13.39453125-31.255859375,8.9306640625-8.2978515625,20.4453125-12.455078125,34.544921875-12.455078125,13.7841796875,0,25.1455078125,4.1572265625,34.0751953125,12.455078125,8.9306640625,8.306640625,13.3955078125,18.7265625,13.3955078125,31.255859375,0,12.2197265625-4.46484375,22.486328125-13.3955078125,30.7841796875-8.9296875,8.3056640625-20.291015625,12.455078125-34.0751953125,12.455078125-14.099609375,0-25.6142578125-4.1494140625-34.544921875-12.455078125ZM1972.39540436756397,856.797466406249441v262.259765625h-80.3701171875v-262.259765625h80.3701171875Z"/>
  </g>
</svg>