<?xml version="1.0" encoding="UTF-8"?>
<svg version="1.1" xmlns="http://www.w3.org/2000/svg" width="500" height="500">
<path d="M0 0 C0 0.66 0 1.32 0 2 C0.66 2 1.32 2 2 2 C6.83519097 9.73630554 8.25036689 16.99319557 8.625 26 C8.66367188 26.77472656 8.70234375 27.54945312 8.7421875 28.34765625 C8.83521357 30.23143415 8.91863175 32.11568256 9 34 C9.33773437 33.4225 9.67546875 32.845 10.0234375 32.25 C10.69246094 31.13625 10.69246094 31.13625 11.375 30 C12.03628906 28.88625 12.03628906 28.88625 12.7109375 27.75 C13.34902344 26.88375 13.34902344 26.88375 14 26 C14.66 26 15.32 26 16 26 C16 25.34 16 24.68 16 24 C16.66 24 17.32 24 18 24 C18 23.34 18 22.68 18 22 C24.55698694 18.03129738 31.37335174 17.25027886 38.8125 18.8125 C41.98213236 19.63862758 45.00950379 20.64945333 48 22 C48 22.66 48 23.32 48 24 C48.51304687 24.08378906 49.02609375 24.16757813 49.5546875 24.25390625 C52.32107251 25.09796302 54.6698255 26.40788493 57.17724609 27.83203125 C63.64050905 31.50032589 69.46793276 34.42662464 77 35 C77.74507812 35.05671875 78.49015625 35.1134375 79.2578125 35.171875 C87.00816617 35.44192217 94.48123849 34.34584101 101 30 C101.99 30 102.98 30 104 30 C104 29.34 104 28.68 104 28 C105.26691507 27.32591692 106.53870749 26.66099503 107.8125 26 C108.52019531 25.62875 109.22789062 25.2575 109.95703125 24.875 C112 24 112 24 115 24 C115 23.34 115 22.68 115 22 C120.03351396 19.5420763 124.22630775 18.45097567 129.875 18.5 C130.57173828 18.50064453 131.26847656 18.50128906 131.98632812 18.50195312 C138.0156641 18.67582235 142.28334851 20.33149328 147 24 C147 24.66 147 25.32 147 26 C147.66 26 148.32 26 149 26 C151 29 151 29 151 32 C151.66 32 152.32 32 153 32 C155.54824455 41.09786483 155.16426122 48.43404162 151 57 C148.9375 60 148.9375 60 147 62 C146.34 62 145.68 62 145 62 C145 62.66 145 63.32 145 64 C144.01 64 143.02 64 142 64 C142 64.66 142 65.32 142 66 C140.25048432 66.95921722 138.50036756 67.91733817 136.75 68.875 C135.77546875 69.40867187 134.8009375 69.94234375 133.796875 70.4921875 C131.54869592 71.70419466 129.2927195 72.87547567 127 74 C128.08539063 74.03738281 129.17078125 74.07476562 130.2890625 74.11328125 C131.73440739 74.17897875 133.17971839 74.24542476 134.625 74.3125 C135.33785156 74.33505859 136.05070312 74.35761719 136.78515625 74.38085938 C141.52586948 74.62006968 144.82315355 75.54264397 149 78 C149 78.66 149 79.32 149 80 C150.32 80.66 151.64 81.32 153 82 C153 82.66 153 83.32 153 84 C153.66 84 154.32 84 155 84 C159.22752667 91.4130317 159.61837887 98.15276227 159.6875 106.5625 C159.31727151 119.51098516 159.31727151 119.51098516 162.5625 131.8125 C164 135 164 135 164 138 C164.66 138 165.32 138 166 138 C167.14392233 139.68223871 168.28710215 141.36498907 169.42578125 143.05078125 C171.69764292 145.86383082 174.44546481 147.72753171 177.42578125 149.73828125 C177.94527344 150.15464844 178.46476562 150.57101563 179 151 C179 151.66 179 152.32 179 153 C179.598125 153.144375 180.19625 153.28875 180.8125 153.4375 C182.56150404 153.8872439 184.28677023 154.42892341 186 155 C186 155.66 186 156.32 186 157 C186.55558594 157.10699219 187.11117188 157.21398437 187.68359375 157.32421875 C190.43751651 158.12763972 192.59891402 159.3447527 195.0625 160.8125 C195.91972656 161.31394531 196.77695312 161.81539062 197.66015625 162.33203125 C200.03848928 164.02743726 201.46910711 165.52547477 203 168 C203 168.66 203 169.32 203 170 C203.66 170 204.32 170 205 170 C208.17185175 176.599498 207.8059515 183.87959371 207 191 C204.08237961 198.25989822 198.65911554 202.77864581 191.8125 206.25 C184.64347671 209.24104945 178.5319157 208.82642651 171.375 206 C169.90896911 205.35043554 168.44750013 204.6898724 167 204 C167 203.34 167 202.68 167 202 C166.44828125 201.88785156 165.8965625 201.77570313 165.328125 201.66015625 C162.59934789 200.88639227 160.27227057 199.73182306 157.75 198.4375 C156.85796875 197.98246094 155.9659375 197.52742187 155.046875 197.05859375 C154.03367187 196.53458984 154.03367187 196.53458984 153 196 C153.66 197.32 154.32 198.64 155 200 C155.66 200 156.32 200 157 200 C159.78371421 204.71316692 160.46599218 208.62135133 160.375 214 C160.38660156 214.68578125 160.39820313 215.3715625 160.41015625 216.078125 C160.3780817 221.68047923 158.9723474 225.5609139 155.46484375 229.8984375 C151.22222222 234 151.22222222 234 149 234 C149 234.66 149 235.32 149 236 C146.35261084 237.4606285 145.10551666 238 142 238 C142 238.66 142 239.32 142 240 C141.27554687 240.37511719 140.55109375 240.75023437 139.8046875 241.13671875 C134.33957901 244.02958284 129.65015986 246.94601448 125 251 C124.34 251 123.68 251 123 251 C122.34 252.65 121.68 254.3 121 256 C120.34 256 119.68 256 119 256 C118.896875 256.53625 118.79375 257.0725 118.6875 257.625 C118 260 118 260 116.5625 262.8125 C113.70284512 268.64619595 112.75733 273.93576432 112.7265625 280.40234375 C112.7062772 281.80144034 112.68542648 283.20052884 112.6640625 284.59960938 C112.64150778 286.76952027 112.62499566 288.93910818 112.61914062 291.10913086 C112.57672995 300.46598698 112.53250647 307.82771628 106.03515625 315.2421875 C105.38417969 315.78101563 104.73320312 316.31984375 104.0625 316.875 C103.41410156 317.42929687 102.76570312 317.98359375 102.09765625 318.5546875 C95.41245968 323.16087508 86.83722895 323.22795292 79 322 C73.76025975 319.88209974 70.25374189 317.23596601 68 312 C67.34 312 66.68 312 66 312 C62.36388533 305.36013844 61.86551894 299.46652915 61.7890625 292.00390625 C61.76100157 290.46027571 61.73233716 288.91665605 61.703125 287.37304688 C61.66190034 284.96606672 61.6249649 282.55929144 61.59863281 280.15209961 C61.57086921 277.81062239 61.5250179 275.47003494 61.4765625 273.12890625 C61.4716832 272.06295982 61.4716832 272.06295982 61.46670532 270.97547913 C61.30107268 264.1684809 59.20772758 258.6577589 54.66015625 253.484375 C50.46570893 249.73404563 45.3255826 246.7751942 40 245 C40 244.34 40 243.68 40 243 C39.18789063 242.84724609 39.18789063 242.84724609 38.359375 242.69140625 C35.39403419 241.82242393 32.94475054 240.44527709 30.25 238.9375 C29.26515625 238.38964844 28.2803125 237.84179688 27.265625 237.27734375 C26.51796875 236.85582031 25.7703125 236.43429687 25 236 C25 235.34 25 234.68 25 234 C24.4225 233.814375 23.845 233.62875 23.25 233.4375 C19.41451191 230.98704927 18.0052174 227.0104348 16 223 C15.84855436 220.40212471 15.76863019 217.84891179 15.75 215.25 C15.7190625 214.19425781 15.7190625 214.19425781 15.6875 213.1171875 C15.63509941 206.06930805 18.24713606 201.21281851 23 196 C23.66 196 24.32 196 25 196 C25 195.34 25 194.68 25 194 C32.27753605 189.68738604 39.65149228 188.74263893 48 190 C50.80841599 191.09677784 53.38550083 192.50478683 56 194 C56.73484619 194.41765625 57.46969238 194.8353125 58.22680664 195.265625 C60.49574618 196.57566892 62.7496218 197.90835338 65 199.25 C65.77472656 199.70890625 66.54945313 200.1678125 67.34765625 200.640625 C69.2332245 201.75799878 71.11729302 202.8778143 73 204 C72.23171875 203.24976563 71.4634375 202.49953125 70.671875 201.7265625 C64.99732284 195.93586454 62.30003532 190.93673651 61.9375 182.734375 C62.12562372 174.50396219 64.42983542 169.08284142 70 163 C74.04033388 159.27046103 79.36068506 155 85 155 C85 154.34 85 153.68 85 153 C86.74681293 152.01515892 88.4975851 151.03733813 90.25 150.0625 C91.22453125 149.51722656 92.1990625 148.97195312 93.203125 148.41015625 C95.53610409 147.23389165 97.45350762 146.47898309 100 146 C100 145.34 100 144.68 100 144 C100.763125 143.2575 101.52625 142.515 102.3125 141.75 C107.67020983 136.26769226 108.44035077 131.41457378 108.44140625 124.09375 C108.45461411 123.25082397 108.46782196 122.40789795 108.48143005 121.53942871 C108.52213383 118.85958516 108.54393854 116.18008157 108.5625 113.5 C108.5863638 110.82002311 108.61460202 108.14036269 108.65428162 105.46057129 C108.67844781 103.79784156 108.69346109 102.13494533 108.69789124 100.4720459 C108.75867168 95.93144892 109.28297694 92.277811 111 88 C111.66 88 112.32 88 113 88 C113.144375 87.38125 113.28875 86.7625 113.4375 86.125 C114 84 114 84 115 82 C114.67 82.33 114.34 82.66 114 83 C113.34 83 112.68 83 112 83 C111.30580437 84.65538958 110.64896236 86.32636023 110 88 C109.48695313 89.17820312 108.97390625 90.35640625 108.4453125 91.5703125 C106.92113934 96.16141378 106.73500822 100.60613698 106.69921875 105.40234375 C106.6934935 106.16955246 106.68776825 106.93676117 106.68186951 107.72721863 C106.67098559 110.93822179 106.67850927 114.14830467 106.71508789 117.35913086 C106.87818062 135.82235251 106.87818062 135.82235251 100 143 C99.01 143.33 98.02 143.66 97 144 C97 144.66 97 145.32 97 146 C89.85681285 150.13455794 83.17589267 151.15528918 75 150 C70.53276268 148.52066618 66.1832578 147.02428103 63.73046875 142.828125 C63.48941406 142.22484375 63.24835938 141.6215625 63 141 C62.34 141 61.68 141 61 141 C56.75476078 134.15283997 55.90738606 128.77184824 55.75390625 120.66015625 C55.7209754 119.25324881 55.68776362 117.84634792 55.65429688 116.43945312 C55.606957 114.24979996 55.56245831 112.06017479 55.52319336 109.87036133 C55.48317734 107.73753125 55.43172575 105.60520256 55.37890625 103.47265625 C55.3538501 102.20687744 55.32879395 100.94109863 55.30297852 99.63696289 C54.64297704 91.71428608 52.11426414 86.11426414 46.5 80.5 C41.87642851 76.8227035 36.31392932 74.50219002 31 72 C31 71.34 31 70.68 31 70 C30.43023437 69.88011719 29.86046875 69.76023437 29.2734375 69.63671875 C21.65803054 67.50388141 14.60062118 62.49198203 10.625 55.625 C10.41875 55.08875 10.2125 54.5525 10 54 C10.33 55.98 10.66 57.96 11 60 C11.66 60 12.32 60 13 60 C13.474375 60.70125 13.94875 61.4025 14.4375 62.125 C18.21285133 66.36076003 22.97488608 68.47877905 28 71 C28 71.66 28 72.32 28 73 C28.55042969 73.10957031 29.10085937 73.21914062 29.66796875 73.33203125 C38.25811342 75.79252495 47.0240025 81.53600375 52 89 C52 90.32 52 91.64 52 93 C52.66 93 53.32 93 54 93 C54 98.94 54 104.88 54 111 C53.34 111 52.68 111 52 111 C51.855625 111.78375 51.71125 112.5675 51.5625 113.375 C51 116 51 116 50 118 C49.34 118 48.68 118 48 118 C47.814375 118.5775 47.62875 119.155 47.4375 119.75 C44.9724462 123.60834507 40.92814754 125.37465485 36.6875 126.75 C24.57319673 127.87691193 16.95121596 125.52730468 6.828125 118.83984375 C-6.36543333 110.11934939 -6.36543333 110.11934939 -21.5625 108.5 C-26.7527244 109.65500768 -30.77141695 111.82553364 -35 115 C-34.23816406 114.6390625 -33.47632813 114.278125 -32.69140625 113.90625 C-25.12363396 110.50500403 -19.30041335 108.26301504 -11.22265625 110.91015625 C-8.77413052 111.86827502 -6.38124776 112.88643111 -4 114 C-4 114.66 -4 115.32 -4 116 C-3.40574219 116.23976563 -2.81148437 116.47953125 -2.19921875 116.7265625 C0.45137018 118.26136177 1.53227968 119.81345082 3.1875 122.375 C3.69667969 123.14585937 4.20585937 123.91671875 4.73046875 124.7109375 C7.40093944 129.52600157 7.63630896 134.59974631 7 140 C5.69112717 144.1705448 3.95260541 148.09478917 2 152 C1.34 152 0.68 152 0 152 C0 152.66 0 153.32 0 154 C-0.66 154 -1.32 154 -2 154 C-2 154.66 -2 155.32 -2 156 C-4.51953125 157.7265625 -4.51953125 157.7265625 -7.8125 159.625 C-8.89144531 160.25664062 -9.97039062 160.88828125 -11.08203125 161.5390625 C-14 163 -14 163 -17 163 C-17 163.66 -17 164.32 -17 165 C-19.64738916 166.4606285 -20.89448334 167 -24 167 C-24 167.66 -24 168.32 -24 169 C-30.625 172.875 -30.625 172.875 -34 174 C-35.08742694 176.21433941 -35.08742694 176.21433941 -36 179 C-36.7734375 180.5778125 -36.7734375 180.5778125 -37.5625 182.1875 C-41.4342539 191.26768473 -40.06127034 202.3527089 -39.87304688 211.98632812 C-39.78475614 220.52975489 -40.91450928 226.38613093 -45 234 C-44.67 233.67 -44.34 233.34 -44 233 C-43.34 233 -42.68 233 -42 233 C-41.87625 232.443125 -41.7525 231.88625 -41.625 231.3125 C-41 229 -41 229 -39.97802734 226.86987305 C-38.71209483 223.15518592 -38.72142329 219.64660172 -38.7265625 215.76953125 C-38.70626077 214.14517556 -38.68540976 212.52082666 -38.6640625 210.89648438 C-38.64156784 208.36021177 -38.62502718 205.82420924 -38.61914062 203.2878418 C-38.53808213 182.5307876 -38.53808213 182.5307876 -32 174.5625 C-31.34 174.046875 -30.68 173.53125 -30 173 C-29.01 172.195625 -29.01 172.195625 -28 171.375 C-21.21357165 166.70933051 -13.13588654 166.26621368 -5.125 167.6875 C0.68517317 170.12777273 5.48046537 172.50952597 9 178 C9 178.99 9 179.98 9 181 C9.66 181 10.32 181 11 181 C12.84359979 186.48295509 13.27011196 191.23482048 13.1953125 196.99609375 C13.1924826 197.82963882 13.18965271 198.6631839 13.18673706 199.52198792 C13.17562289 202.1606436 13.15053515 204.79894848 13.125 207.4375 C13.11495885 209.23632319 13.10583499 211.03515175 13.09765625 212.83398438 C13.07571235 217.22278955 13.04124387 221.61133548 13 226 C13.66 226 14.32 226 15 226 C15 227.32 15 228.64 15 230 C15.66 230 16.32 230 17 230 C17 230.99 17 231.98 17 233 C17.66 233 18.32 233 19 233 C19.71027344 233.73863281 20.42054688 234.47726562 21.15234375 235.23828125 C24.38906751 238.3773261 27.57417581 240.17569045 31.5625 242.1875 C32.22185547 242.52974609 32.88121094 242.87199219 33.56054688 243.22460938 C36.69225822 244.8455454 39.84115634 246.43263482 43 248 C43 248.66 43 249.32 43 250 C43.598125 250.144375 44.19625 250.28875 44.8125 250.4375 C46.56150404 250.8872439 48.28677023 251.42892341 50 252 C50 252.66 50 253.32 50 254 C50.66 254 51.32 254 52 254 C52 254.66 52 255.32 52 256 C52.66 256 53.32 256 54 256 C54 256.66 54 257.32 54 258 C54.66 258 55.32 258 56 258 C56 258.99 56 259.98 56 261 C56.66 261 57.32 261 58 261 C61.40834525 270.0504083 61.86048499 277.17218782 57.9375 286.125 C57.30608762 287.42377707 56.66556966 288.71839144 56 290 C55.34 290 54.68 290 54 290 C54 290.66 54 291.32 54 292 C53.34 292 52.68 292 52 292 C52 292.66 52 293.32 52 294 C50.730447 294.64834654 49.45930294 295.29357815 48.1875 295.9375 C47.47980469 296.29714844 46.77210938 296.65679687 46.04296875 297.02734375 C40.6981292 299.5720188 35.80739605 299.93405671 30 299 C24.3975101 296.95333395 19.21127807 293.86930113 14 291 C1.86269588 284.47354005 -8.02924409 280.44678592 -22 283 C-24.94420372 283.89263756 -27.77397446 284.90851347 -30.625 286.0625 C-32.74393154 286.89892035 -34.7800446 287.50667658 -37 288 C-37 288.66 -37 289.32 -37 290 C-38.32 290 -39.64 290 -41 290 C-41 290.66 -41 291.32 -41 292 C-42.93625098 292.98163422 -44.87404539 293.96022454 -46.8125 294.9375 C-48.43091797 295.75541016 -48.43091797 295.75541016 -50.08203125 296.58984375 C-56.08018176 299.48854835 -62.17180507 300.2722098 -68.5859375 298.140625 C-70.77147371 297.16456028 -72.891417 296.13154562 -75 295 C-75.66 294.67 -76.32 294.34 -77 294 C-77 293.34 -77 292.68 -77 292 C-77.66 292 -78.32 292 -79 292 C-79 291.34 -79 290.68 -79 290 C-79.66 290 -80.32 290 -81 290 C-84.61741554 284.56667069 -85.71545289 280.62116184 -85.625 274.125 C-85.61952148 273.33287109 -85.61404297 272.54074219 -85.60839844 271.72460938 C-85.40445189 266.0281714 -84.28705703 262.09261804 -80.703125 257.53125 C-78.90817894 255.91744529 -77.20605744 254.95915541 -75 254 C-75 253.34 -75 252.68 -75 252 C-72.35261084 250.5393715 -71.10551666 250 -68 250 C-68 249.34 -68 248.68 -68 248 C-64.535 246.02 -64.535 246.02 -61 244 C-61.67804688 243.98582031 -62.35609375 243.97164062 -63.0546875 243.95703125 C-71.04848946 243.54737658 -78.12365544 241.97265126 -83.88671875 236.06640625 C-88.44666625 230.22569867 -90.24071363 225.4092596 -90.23828125 217.93359375 C-90.25371855 216.54621437 -90.27002344 215.15884443 -90.28710938 213.77148438 C-90.30343024 211.61493845 -90.3125716 209.45909174 -90.30541992 207.30249023 C-90.29432355 198.5555244 -90.98430246 191.36078168 -94.93041992 183.34008789 C-96 181 -96 181 -96 178 C-96.66 178 -97.32 178 -98 178 C-99.4453125 176.4609375 -99.4453125 176.4609375 -101.125 174.375 C-105.26492763 169.49889277 -109.84443198 165.05185601 -116 163 C-116 162.34 -116 161.68 -116 161 C-116.55816406 160.89042969 -117.11632812 160.78085938 -117.69140625 160.66796875 C-124.78772819 158.61471824 -130.91385093 154.06731226 -135 148 C-139.10205366 139.9423946 -139.46369219 134.06383205 -136.89453125 125.53515625 C-135.90652551 122.73508759 -134.8524729 120.3357267 -133 118 C-132.34 118 -131.68 118 -131 118 C-131 117.34 -131 116.68 -131 116 C-128.525 115.01 -128.525 115.01 -126 114 C-126 113.34 -126 112.68 -126 112 C-117.85285481 108.90927724 -108.69286313 108.39439397 -100.625 112 C-99.40242892 112.64018267 -98.18723782 113.29645167 -97 114 C-97 114.66 -97 115.32 -97 116 C-96.45859375 116.10183594 -95.9171875 116.20367187 -95.359375 116.30859375 C-92.39403419 117.17757607 -89.94475054 118.55472291 -87.25 120.0625 C-86.26515625 120.61035156 -85.2803125 121.15820312 -84.265625 121.72265625 C-83.51796875 122.14417969 -82.7703125 122.56570312 -82 123 C-82 123.66 -82 124.32 -82 125 C-81.4225 125.13148438 -80.845 125.26296875 -80.25 125.3984375 C-78 126 -78 126 -76.0625 126.7890625 C-68.43457686 129.88068286 -60.84190849 129.16071588 -53 127 C-53.33 126.67 -53.66 126.34 -54 126 C-54.763125 126.33 -55.52625 126.66 -56.3125 127 C-63.22767129 128.87530069 -70.35470681 128.8736403 -77 126 C-77 125.34 -77 124.68 -77 124 C-77.61875 123.855625 -78.2375 123.71125 -78.875 123.5625 C-81 123 -81 123 -83 122 C-83 121.34 -83 120.68 -83 120 C-83.66 120 -84.32 120 -85 120 C-88.46708022 113.96056993 -90.19937223 110.31257391 -90.25 103.25 C-90.270625 102.54617187 -90.29125 101.84234375 -90.3125 101.1171875 C-90.35826897 94.96126071 -88.41400059 91.12100088 -85 86 C-84.34 86 -83.68 86 -83 86 C-83 85.34 -83 84.68 -83 84 C-80 82 -80 82 -77 82 C-77 81.34 -77 80.68 -77 80 C-74.48046875 78.2734375 -74.48046875 78.2734375 -71.1875 76.375 C-70.10855469 75.74335938 -69.02960938 75.11171875 -67.91796875 74.4609375 C-65 73 -65 73 -62 73 C-62 72.34 -62 71.68 -62 71 C-61.01 71 -60.02 71 -59 71 C-59 70.34 -59 69.68 -59 69 C-57.8269685 67.9788076 -56.60971147 67.00818725 -55.375 66.0625 C-48.52801857 60.2474218 -45.1435354 52.59083579 -43 44 C-42.82635609 41.62177571 -42.73836235 39.23608839 -42.7265625 36.8515625 C-42.70627247 35.50259589 -42.68542166 34.15363761 -42.6640625 32.8046875 C-42.64154111 30.71607343 -42.62500784 28.62779222 -42.61914062 26.5390625 C-42.580385 18.32286974 -42.33888812 11.21988996 -38 4 C-37.34 4 -36.68 4 -36 4 C-35.79375 3.4225 -35.5875 2.845 -35.375 2.25 C-32.81182064 -1.9442935 -28.79081464 -3.94345034 -24.1875 -5.3125 C-15.69703885 -7.12379838 -7.1314187 -4.75427914 0 0 Z M8 47 C8 48.65 8 50.3 8 52 C8.33 52 8.66 52 9 52 C9 50.35 9 48.7 9 47 C8.67 47 8.34 47 8 47 Z M-39 116 C-39.33 116.66 -39.66 117.32 -40 118 C-39.01 117.67 -38.02 117.34 -37 117 C-37.66 116.67 -38.32 116.34 -39 116 Z M-43 118 C-42.67 118.66 -42.34 119.32 -42 120 C-41.34 119.34 -40.68 118.68 -40 118 C-40.99 118 -41.98 118 -43 118 Z M-46 120 C-46.33 120.66 -46.66 121.32 -47 122 C-45.68 121.34 -44.36 120.68 -43 120 C-43.99 120 -44.98 120 -46 120 Z M121 191 C121.33 191.66 121.66 192.32 122 193 C122.57073242 192.67854004 123.14146484 192.35708008 123.72949219 192.02587891 C126.10556758 190.95230161 127.74114872 190.69680791 130.328125 190.5859375 C131.12734375 190.54726563 131.9265625 190.50859375 132.75 190.46875 C133.575 190.4378125 134.4 190.406875 135.25 190.375 C136.51070313 190.31699219 136.51070313 190.31699219 137.796875 190.2578125 C139.86423382 190.16384164 141.93208627 190.08084436 144 190 C135.47598089 185.46634588 129.47949212 187.36815871 121 191 Z M118 193 C117.67 193.66 117.34 194.32 117 195 C118.32 194.34 119.64 193.68 121 193 C120.01 193 119.02 193 118 193 Z M114 195 C114 195.66 114 196.32 114 197 C113.1646875 197.1546875 113.1646875 197.1546875 112.3125 197.3125 C109.55823422 198.13133577 107.41272343 199.45853781 105 201 C105.99 201.495 105.99 201.495 107 202 C109.01925867 201.23399418 109.01925867 201.23399418 111.125 200.0625 C111.84945312 199.68222656 112.57390625 199.30195313 113.3203125 198.91015625 C113.87460937 198.60980469 114.42890625 198.30945313 115 198 C115 197.34 115 196.68 115 196 C115.66 195.67 116.32 195.34 117 195 C116.01 195 115.02 195 114 195 Z M99.625 203.4375 C92.63708098 207.59697561 83.71657106 206.3134589 76 205 C76 205.66 76 206.32 76 207 C82.63912743 210.05571669 90.11505047 210.34498253 97.03515625 207.94921875 C101.81276361 205.84201694 101.81276361 205.84201694 105 202 C101.9650577 201.74109866 101.9650577 201.74109866 99.625 203.4375 Z " fill="#E07703" transform="translate(215,91)"/>
<path d="M0 0 C0.73089844 0.433125 0.73089844 0.433125 1.4765625 0.875 C1.4765625 1.535 1.4765625 2.195 1.4765625 2.875 C2.01796875 2.97683594 2.559375 3.07867187 3.1171875 3.18359375 C6.08252831 4.05257607 8.53181196 5.42972291 11.2265625 6.9375 C12.21140625 7.48535156 13.19625 8.03320312 14.2109375 8.59765625 C15.33242187 9.22994141 15.33242187 9.22994141 16.4765625 9.875 C16.4765625 10.535 16.4765625 11.195 16.4765625 11.875 C17.0540625 12.00648438 17.6315625 12.13796875 18.2265625 12.2734375 C20.4765625 12.875 20.4765625 12.875 22.4140625 13.6640625 C30.04198564 16.75568286 37.63465401 16.03571588 45.4765625 13.875 C45.4765625 13.215 45.4765625 12.555 45.4765625 11.875 C56.10067102 5.93856323 56.10067102 5.93856323 60.2890625 4.25 C63.56172104 2.95444427 63.56172104 2.95444427 66.5390625 0.8125 C72.21535013 -2.93143439 77.78568522 -4.03980993 84.4765625 -3.125 C87.92385233 -2.01917481 91.19878183 -0.65782436 94.4765625 0.875 C94.4765625 1.535 94.4765625 2.195 94.4765625 2.875 C95.07082031 3.11476562 95.66507813 3.35453125 96.27734375 3.6015625 C98.92793268 5.13636177 100.00884218 6.68845082 101.6640625 9.25 C102.17324219 10.02085937 102.68242187 10.79171875 103.20703125 11.5859375 C105.87750194 16.40100157 106.11287146 21.47474631 105.4765625 26.875 C104.16768967 31.0455448 102.42916791 34.96978917 100.4765625 38.875 C99.8165625 38.875 99.1565625 38.875 98.4765625 38.875 C98.4765625 39.535 98.4765625 40.195 98.4765625 40.875 C97.8165625 40.875 97.1565625 40.875 96.4765625 40.875 C96.4765625 41.535 96.4765625 42.195 96.4765625 42.875 C93.95703125 44.6015625 93.95703125 44.6015625 90.6640625 46.5 C89.58511719 47.13164062 88.50617188 47.76328125 87.39453125 48.4140625 C84.4765625 49.875 84.4765625 49.875 81.4765625 49.875 C81.4765625 50.535 81.4765625 51.195 81.4765625 51.875 C78.82917334 53.3356285 77.58207916 53.875 74.4765625 53.875 C74.4765625 54.535 74.4765625 55.195 74.4765625 55.875 C67.8515625 59.75 67.8515625 59.75 64.4765625 60.875 C63.38913556 63.08933941 63.38913556 63.08933941 62.4765625 65.875 C61.9609375 66.926875 61.4453125 67.97875 60.9140625 69.0625 C57.0423086 78.14268473 58.41529216 89.2277089 58.60351562 98.86132812 C58.69180636 107.40475489 57.56205322 113.26113093 53.4765625 120.875 C53.8065625 120.545 54.1365625 120.215 54.4765625 119.875 C55.1365625 119.875 55.7965625 119.875 56.4765625 119.875 C56.6003125 119.318125 56.7240625 118.76125 56.8515625 118.1875 C57.4765625 115.875 57.4765625 115.875 58.49853516 113.74487305 C59.76446767 110.03018592 59.75513921 106.52160172 59.75 102.64453125 C59.77030173 101.02017556 59.79115274 99.39582666 59.8125 97.77148438 C59.83499466 95.23521177 59.85153532 92.69920924 59.85742188 90.1628418 C59.93848037 69.4057876 59.93848037 69.4057876 66.4765625 61.4375 C67.1365625 60.921875 67.7965625 60.40625 68.4765625 59.875 C69.1365625 59.33875 69.7965625 58.8025 70.4765625 58.25 C77.26299085 53.58433051 85.34067596 53.14121368 93.3515625 54.5625 C99.16173567 57.00277273 103.95702787 59.38452597 107.4765625 64.875 C107.4765625 65.865 107.4765625 66.855 107.4765625 67.875 C108.1365625 67.875 108.7965625 67.875 109.4765625 67.875 C111.32016229 73.35795509 111.74667446 78.10982048 111.671875 83.87109375 C111.6690451 84.70463882 111.66621521 85.5381839 111.66329956 86.39698792 C111.65218539 89.0356436 111.62709765 91.67394848 111.6015625 94.3125 C111.59152135 96.11132319 111.58239749 97.91015175 111.57421875 99.70898438 C111.55227485 104.09778955 111.51780637 108.48633548 111.4765625 112.875 C112.1365625 112.875 112.7965625 112.875 113.4765625 112.875 C113.4765625 114.195 113.4765625 115.515 113.4765625 116.875 C114.1365625 116.875 114.7965625 116.875 115.4765625 116.875 C115.4765625 117.865 115.4765625 118.855 115.4765625 119.875 C116.1365625 119.875 116.7965625 119.875 117.4765625 119.875 C118.18683594 120.61363281 118.89710938 121.35226562 119.62890625 122.11328125 C122.86563001 125.2523261 126.05073831 127.05069045 130.0390625 129.0625 C130.69841797 129.40474609 131.35777344 129.74699219 132.03710938 130.09960938 C135.16882072 131.7205454 138.31771884 133.30763482 141.4765625 134.875 C141.4765625 135.535 141.4765625 136.195 141.4765625 136.875 C142.0746875 137.019375 142.6728125 137.16375 143.2890625 137.3125 C145.03806654 137.7622439 146.76333273 138.30392341 148.4765625 138.875 C148.4765625 139.535 148.4765625 140.195 148.4765625 140.875 C149.1365625 140.875 149.7965625 140.875 150.4765625 140.875 C150.4765625 141.535 150.4765625 142.195 150.4765625 142.875 C151.1365625 142.875 151.7965625 142.875 152.4765625 142.875 C152.4765625 143.535 152.4765625 144.195 152.4765625 144.875 C153.1365625 144.875 153.7965625 144.875 154.4765625 144.875 C154.4765625 145.865 154.4765625 146.855 154.4765625 147.875 C155.1365625 147.875 155.7965625 147.875 156.4765625 147.875 C159.88490775 156.9254083 160.33704749 164.04718782 156.4140625 173 C155.78265012 174.29877707 155.14213216 175.59339144 154.4765625 176.875 C153.8165625 176.875 153.1565625 176.875 152.4765625 176.875 C152.4765625 177.535 152.4765625 178.195 152.4765625 178.875 C151.8165625 178.875 151.1565625 178.875 150.4765625 178.875 C150.4765625 179.535 150.4765625 180.195 150.4765625 180.875 C149.2070095 181.52334654 147.93586544 182.16857815 146.6640625 182.8125 C145.95636719 183.17214844 145.24867188 183.53179687 144.51953125 183.90234375 C139.1746917 186.4470188 134.28395855 186.80905671 128.4765625 185.875 C122.8740726 183.82833395 117.68784057 180.74430113 112.4765625 177.875 C100.33925838 171.34854005 90.44731841 167.32178592 76.4765625 169.875 C73.53235878 170.76763756 70.70258804 171.78351347 67.8515625 172.9375 C65.73263096 173.77392035 63.6965179 174.38167658 61.4765625 174.875 C61.4765625 175.535 61.4765625 176.195 61.4765625 176.875 C60.1565625 176.875 58.8365625 176.875 57.4765625 176.875 C57.4765625 177.535 57.4765625 178.195 57.4765625 178.875 C55.54031152 179.85663422 53.60251711 180.83522454 51.6640625 181.8125 C50.58511719 182.35777344 49.50617188 182.90304687 48.39453125 183.46484375 C42.39638074 186.36354835 36.30475743 187.1472098 29.890625 185.015625 C27.70508879 184.03956028 25.5851455 183.00654562 23.4765625 181.875 C22.8165625 181.545 22.1565625 181.215 21.4765625 180.875 C21.4765625 180.215 21.4765625 179.555 21.4765625 178.875 C20.8165625 178.875 20.1565625 178.875 19.4765625 178.875 C19.4765625 178.215 19.4765625 177.555 19.4765625 176.875 C18.8165625 176.875 18.1565625 176.875 17.4765625 176.875 C13.85914696 171.44167069 12.76110961 167.49616184 12.8515625 161 C12.85704102 160.20787109 12.86251953 159.41574219 12.86816406 158.59960938 C13.07211061 152.9031714 14.18950547 148.96761804 17.7734375 144.40625 C19.56838356 142.79244529 21.27050506 141.83415541 23.4765625 140.875 C23.4765625 140.215 23.4765625 139.555 23.4765625 138.875 C26.12395166 137.4143715 27.37104584 136.875 30.4765625 136.875 C30.4765625 136.215 30.4765625 135.555 30.4765625 134.875 C33.9415625 132.895 33.9415625 132.895 37.4765625 130.875 C36.79851562 130.86082031 36.12046875 130.84664062 35.421875 130.83203125 C27.42807304 130.42237658 20.35290706 128.84765126 14.58984375 122.94140625 C10.02989625 117.10069867 8.23584887 112.2842596 8.23828125 104.80859375 C8.22284395 103.42121437 8.20653906 102.03384443 8.18945312 100.64648438 C8.17313226 98.48993845 8.1639909 96.33409174 8.17114258 94.17749023 C8.18223895 85.4305244 7.49226004 78.23578168 3.54614258 70.21508789 C2.4765625 67.875 2.4765625 67.875 2.4765625 64.875 C1.8165625 64.875 1.1565625 64.875 0.4765625 64.875 C-0.96875 63.3359375 -0.96875 63.3359375 -2.6484375 61.25 C-6.78836513 56.37389277 -11.36786948 51.92685601 -17.5234375 49.875 C-17.5234375 49.215 -17.5234375 48.555 -17.5234375 47.875 C-18.08160156 47.76542969 -18.63976562 47.65585938 -19.21484375 47.54296875 C-26.31116569 45.48971824 -32.43728843 40.94231226 -36.5234375 34.875 C-40.62549116 26.8173946 -40.98712969 20.93883205 -38.41796875 12.41015625 C-37.42996301 9.61008759 -36.3759104 7.2107267 -34.5234375 4.875 C-33.8634375 4.875 -33.2034375 4.875 -32.5234375 4.875 C-32.5234375 4.215 -32.5234375 3.555 -32.5234375 2.875 C-30.8734375 2.215 -29.2234375 1.555 -27.5234375 0.875 C-27.5234375 0.215 -27.5234375 -0.445 -27.5234375 -1.125 C-18.37869814 -4.59417275 -8.71787438 -4.56499604 0 0 Z " fill="#E07703" transform="translate(116.5234375,204.125)"/>
<path d="M0 0 C0 0.66 0 1.32 0 2 C0.66 2 1.32 2 2 2 C8.06358944 11.70174311 8.3425885 20.68650001 8.5625 31.9375 C8.67749428 46.09286184 8.67749428 46.09286184 11 60 C11.66 60 12.32 60 13 60 C13.474375 60.70125 13.94875 61.4025 14.4375 62.125 C18.21285133 66.36076003 22.97488608 68.47877905 28 71 C28 71.66 28 72.32 28 73 C28.55042969 73.10957031 29.10085937 73.21914062 29.66796875 73.33203125 C38.25811342 75.79252495 47.0240025 81.53600375 52 89 C52 90.32 52 91.64 52 93 C52.66 93 53.32 93 54 93 C54 98.94 54 104.88 54 111 C53.34 111 52.68 111 52 111 C51.855625 111.78375 51.71125 112.5675 51.5625 113.375 C51 116 51 116 50 118 C49.34 118 48.68 118 48 118 C47.814375 118.5775 47.62875 119.155 47.4375 119.75 C44.9724462 123.60834507 40.92814754 125.37465485 36.6875 126.75 C24.57319673 127.87691193 16.95121596 125.52730468 6.828125 118.83984375 C-6.36543333 110.11934939 -6.36543333 110.11934939 -21.5625 108.5 C-26.60335171 109.64145869 -31.12418027 111.50761699 -35 115 C-35.495 116.485 -35.495 116.485 -36 118 C-36.99 117.67 -37.98 117.34 -39 117 C-41.14255793 117.38932856 -41.14255793 117.38932856 -43 118 C-43 118.66 -43 119.32 -43 120 C-53.58780744 125.99096577 -62.36095705 130.34279131 -74.6875 127 C-75.450625 126.67 -76.21375 126.34 -77 126 C-77 125.34 -77 124.68 -77 124 C-77.61875 123.855625 -78.2375 123.71125 -78.875 123.5625 C-81 123 -81 123 -83 122 C-83 121.34 -83 120.68 -83 120 C-83.66 120 -84.32 120 -85 120 C-88.46708022 113.96056993 -90.19937223 110.31257391 -90.25 103.25 C-90.270625 102.54617187 -90.29125 101.84234375 -90.3125 101.1171875 C-90.35826897 94.96126071 -88.41400059 91.12100088 -85 86 C-84.34 86 -83.68 86 -83 86 C-83 85.34 -83 84.68 -83 84 C-80 82 -80 82 -77 82 C-77 81.34 -77 80.68 -77 80 C-74.48046875 78.2734375 -74.48046875 78.2734375 -71.1875 76.375 C-70.10855469 75.74335938 -69.02960938 75.11171875 -67.91796875 74.4609375 C-65 73 -65 73 -62 73 C-62 72.34 -62 71.68 -62 71 C-61.01 71 -60.02 71 -59 71 C-59 70.34 -59 69.68 -59 69 C-57.8269685 67.9788076 -56.60971147 67.00818725 -55.375 66.0625 C-48.52801857 60.2474218 -45.1435354 52.59083579 -43 44 C-42.82635609 41.62177571 -42.73836235 39.23608839 -42.7265625 36.8515625 C-42.70627247 35.50259589 -42.68542166 34.15363761 -42.6640625 32.8046875 C-42.64154111 30.71607343 -42.62500784 28.62779222 -42.61914062 26.5390625 C-42.580385 18.32286974 -42.33888812 11.21988996 -38 4 C-37.34 4 -36.68 4 -36 4 C-35.79375 3.4225 -35.5875 2.845 -35.375 2.25 C-32.81182064 -1.9442935 -28.79081464 -3.94345034 -24.1875 -5.3125 C-15.69703885 -7.12379838 -7.1314187 -4.75427914 0 0 Z " fill="#F1AF4F" transform="translate(215,91)"/>
<path d="M0 0 C1.91623926 1.77106962 3.40891922 3.46161454 4.8046875 5.66796875 C4.8046875 6.65796875 4.8046875 7.64796875 4.8046875 8.66796875 C5.4646875 8.66796875 6.1246875 8.66796875 6.8046875 8.66796875 C8.64828729 14.15092384 9.07479946 18.90278923 9 24.6640625 C8.9971701 25.49760757 8.99434021 26.33115265 8.99142456 27.18995667 C8.98031039 29.82861235 8.95522265 32.46691723 8.9296875 35.10546875 C8.91964635 36.90429194 8.91052249 38.7031205 8.90234375 40.50195312 C8.88039985 44.8907583 8.84593137 49.27930423 8.8046875 53.66796875 C9.4646875 53.66796875 10.1246875 53.66796875 10.8046875 53.66796875 C10.8046875 54.98796875 10.8046875 56.30796875 10.8046875 57.66796875 C11.4646875 57.66796875 12.1246875 57.66796875 12.8046875 57.66796875 C12.8046875 58.65796875 12.8046875 59.64796875 12.8046875 60.66796875 C13.4646875 60.66796875 14.1246875 60.66796875 14.8046875 60.66796875 C15.51496094 61.40660156 16.22523438 62.14523437 16.95703125 62.90625 C20.19375501 66.04529485 23.37886331 67.8436592 27.3671875 69.85546875 C28.02654297 70.19771484 28.68589844 70.53996094 29.36523438 70.89257812 C32.49694572 72.51351415 35.64584384 74.10060357 38.8046875 75.66796875 C38.8046875 76.32796875 38.8046875 76.98796875 38.8046875 77.66796875 C39.4028125 77.81234375 40.0009375 77.95671875 40.6171875 78.10546875 C42.36619154 78.55521265 44.09145773 79.09689216 45.8046875 79.66796875 C45.8046875 80.32796875 45.8046875 80.98796875 45.8046875 81.66796875 C46.4646875 81.66796875 47.1246875 81.66796875 47.8046875 81.66796875 C47.8046875 82.32796875 47.8046875 82.98796875 47.8046875 83.66796875 C48.4646875 83.66796875 49.1246875 83.66796875 49.8046875 83.66796875 C49.8046875 84.32796875 49.8046875 84.98796875 49.8046875 85.66796875 C50.4646875 85.66796875 51.1246875 85.66796875 51.8046875 85.66796875 C51.8046875 86.65796875 51.8046875 87.64796875 51.8046875 88.66796875 C52.4646875 88.66796875 53.1246875 88.66796875 53.8046875 88.66796875 C57.21303275 97.71837705 57.66517249 104.84015657 53.7421875 113.79296875 C53.11077512 115.09174582 52.47025716 116.38636019 51.8046875 117.66796875 C51.1446875 117.66796875 50.4846875 117.66796875 49.8046875 117.66796875 C49.8046875 118.32796875 49.8046875 118.98796875 49.8046875 119.66796875 C49.1446875 119.66796875 48.4846875 119.66796875 47.8046875 119.66796875 C47.8046875 120.32796875 47.8046875 120.98796875 47.8046875 121.66796875 C46.5351345 122.31631529 45.26399044 122.9615469 43.9921875 123.60546875 C43.28449219 123.96511719 42.57679688 124.32476562 41.84765625 124.6953125 C36.5028167 127.23998755 31.61208355 127.60202546 25.8046875 126.66796875 C20.2021976 124.6213027 15.01596557 121.53726988 9.8046875 118.66796875 C-2.33261662 112.1415088 -12.22455659 108.11475467 -26.1953125 110.66796875 C-29.13951622 111.56060631 -31.96928696 112.57648222 -34.8203125 113.73046875 C-36.93924404 114.5668891 -38.9753571 115.17464533 -41.1953125 115.66796875 C-41.1953125 116.32796875 -41.1953125 116.98796875 -41.1953125 117.66796875 C-42.5153125 117.66796875 -43.8353125 117.66796875 -45.1953125 117.66796875 C-45.1953125 118.32796875 -45.1953125 118.98796875 -45.1953125 119.66796875 C-47.13156348 120.64960297 -49.06935789 121.62819329 -51.0078125 122.60546875 C-52.08675781 123.15074219 -53.16570312 123.69601562 -54.27734375 124.2578125 C-60.27549426 127.1565171 -66.36711757 127.94017855 -72.78125 125.80859375 C-74.96678621 124.83252903 -77.0867295 123.79951437 -79.1953125 122.66796875 C-79.8553125 122.33796875 -80.5153125 122.00796875 -81.1953125 121.66796875 C-81.1953125 121.00796875 -81.1953125 120.34796875 -81.1953125 119.66796875 C-81.8553125 119.66796875 -82.5153125 119.66796875 -83.1953125 119.66796875 C-83.1953125 119.00796875 -83.1953125 118.34796875 -83.1953125 117.66796875 C-83.8553125 117.66796875 -84.5153125 117.66796875 -85.1953125 117.66796875 C-88.81272804 112.23463944 -89.91076539 108.28913059 -89.8203125 101.79296875 C-89.81483398 101.00083984 -89.80935547 100.20871094 -89.80371094 99.39257812 C-89.59976439 93.69614015 -88.48236953 89.76058679 -84.8984375 85.19921875 C-83.10349144 83.58541404 -81.40136994 82.62712416 -79.1953125 81.66796875 C-79.1953125 81.00796875 -79.1953125 80.34796875 -79.1953125 79.66796875 C-76.54792334 78.20734025 -75.30082916 77.66796875 -72.1953125 77.66796875 C-72.1953125 77.00796875 -72.1953125 76.34796875 -72.1953125 75.66796875 C-68.61733748 73.4773718 -65.85822425 71.82465698 -61.7578125 70.85546875 C-57.45938946 69.42266107 -55.118382 67.23241679 -51.89453125 64.12890625 C-50.1953125 62.66796875 -50.1953125 62.66796875 -48.1953125 62.66796875 C-48.1953125 62.00796875 -48.1953125 61.34796875 -48.1953125 60.66796875 C-47.5353125 60.66796875 -46.8753125 60.66796875 -46.1953125 60.66796875 C-46.0715625 60.11109375 -45.9478125 59.55421875 -45.8203125 58.98046875 C-45.1953125 56.66796875 -45.1953125 56.66796875 -44.17333984 54.5378418 C-42.90740733 50.82315467 -42.91673579 47.31457047 -42.921875 43.4375 C-42.90157327 41.81314431 -42.88072226 40.18879541 -42.859375 38.56445312 C-42.83688034 36.02818052 -42.82033968 33.49217799 -42.81445312 30.95581055 C-42.73339463 10.19875635 -42.73339463 10.19875635 -36.1953125 2.23046875 C-35.5353125 1.71484375 -34.8753125 1.19921875 -34.1953125 0.66796875 C-33.5353125 0.13171875 -32.8753125 -0.40453125 -32.1953125 -0.95703125 C-22.48693641 -7.63153981 -9.35209929 -6.86408797 0 0 Z " fill="#6A0711" transform="translate(219.1953125,263.33203125)"/>
<path d="M0 0 C4.38230468 2.36615945 8.6617143 4.91516447 12.9296875 7.48046875 C14.41377026 8.3724497 15.89938608 9.26188621 17.38671875 10.1484375 C18.03229736 10.53668701 18.67787598 10.92493652 19.34301758 11.32495117 C21.26028773 12.43888406 21.26028773 12.43888406 24.1171875 13.29296875 C24.1171875 13.95296875 24.1171875 14.61296875 24.1171875 15.29296875 C34.54427634 17.64436402 43.04601326 17.02050197 52.1171875 11.29296875 C52.87257813 10.81601562 53.62796875 10.3390625 54.40625 9.84765625 C55.75812572 8.9873717 57.09979544 8.11061472 58.42578125 7.2109375 C60.1171875 6.29296875 60.1171875 6.29296875 63.1171875 6.29296875 C63.1171875 5.63296875 63.1171875 4.97296875 63.1171875 4.29296875 C72.15080955 -2.39270748 81.25965569 -3.06821056 92.1171875 -1.70703125 C97.86659997 -0.26466993 99.77874861 1.57987855 103.1171875 6.29296875 C103.1171875 6.95296875 103.1171875 7.61296875 103.1171875 8.29296875 C103.7771875 8.29296875 104.4371875 8.29296875 105.1171875 8.29296875 C107.90090171 13.00613567 108.58317968 16.91432008 108.4921875 22.29296875 C108.50378906 22.97875 108.51539063 23.66453125 108.52734375 24.37109375 C108.4952692 29.97344798 107.0895349 33.85388265 103.58203125 38.19140625 C99.33940972 42.29296875 99.33940972 42.29296875 97.1171875 42.29296875 C97.1171875 42.95296875 97.1171875 43.61296875 97.1171875 44.29296875 C94.46979834 45.75359725 93.22270416 46.29296875 90.1171875 46.29296875 C90.1171875 46.95296875 90.1171875 47.61296875 90.1171875 48.29296875 C89.39273438 48.66808594 88.66828125 49.04320312 87.921875 49.4296875 C82.45676651 52.32255159 77.76734736 55.23898323 73.1171875 59.29296875 C72.4571875 59.29296875 71.7971875 59.29296875 71.1171875 59.29296875 C70.4571875 60.94296875 69.7971875 62.59296875 69.1171875 64.29296875 C68.4571875 64.29296875 67.7971875 64.29296875 67.1171875 64.29296875 C67.0140625 64.82921875 66.9109375 65.36546875 66.8046875 65.91796875 C66.1171875 68.29296875 66.1171875 68.29296875 64.6796875 71.10546875 C61.82003262 76.9391647 60.8745175 82.22873307 60.84375 88.6953125 C60.8234647 90.09440909 60.80261398 91.49349759 60.78125 92.89257812 C60.75869528 95.06248902 60.74218316 97.23207693 60.73632812 99.40209961 C60.69391745 108.75895573 60.64969397 116.12068503 54.15234375 123.53515625 C53.50136719 124.07398438 52.85039062 124.6128125 52.1796875 125.16796875 C51.53128906 125.72226562 50.88289063 126.2765625 50.21484375 126.84765625 C43.52964718 131.45384383 34.95441645 131.52092167 27.1171875 130.29296875 C21.87744725 128.17506849 18.37092939 125.52893476 16.1171875 120.29296875 C15.4571875 120.29296875 14.7971875 120.29296875 14.1171875 120.29296875 C10.48107283 113.65310719 9.98270644 107.7594979 9.90625 100.296875 C9.87818907 98.75324446 9.84952466 97.2096248 9.8203125 95.66601562 C9.77908784 93.25903547 9.7421524 90.85226019 9.71582031 88.44506836 C9.68805671 86.10359114 9.6422054 83.76300369 9.59375 81.421875 C9.59049713 80.71124405 9.58724426 80.0006131 9.58389282 79.26844788 C9.41826018 72.46144965 7.32491508 66.95072765 2.77734375 61.77734375 C-1.41710357 58.02701438 -6.5572299 55.06816295 -11.8828125 53.29296875 C-11.8828125 52.63296875 -11.8828125 51.97296875 -11.8828125 51.29296875 C-12.42421875 51.19113281 -12.965625 51.08929688 -13.5234375 50.984375 C-16.48877831 50.11539268 -18.93806196 48.73824584 -21.6328125 47.23046875 C-22.61765625 46.68261719 -23.6025 46.13476562 -24.6171875 45.5703125 C-25.36484375 45.14878906 -26.1125 44.72726562 -26.8828125 44.29296875 C-26.8828125 43.63296875 -26.8828125 42.97296875 -26.8828125 42.29296875 C-27.7490625 42.01453125 -27.7490625 42.01453125 -28.6328125 41.73046875 C-32.46830059 39.28001802 -33.8775951 35.30340355 -35.8828125 31.29296875 C-36.03425814 28.69509346 -36.11418231 26.14188054 -36.1328125 23.54296875 C-36.1534375 22.83914063 -36.1740625 22.1353125 -36.1953125 21.41015625 C-36.24771309 14.3622768 -33.63567644 9.50578726 -28.8828125 4.29296875 C-28.2228125 4.29296875 -27.5628125 4.29296875 -26.8828125 4.29296875 C-26.8828125 3.63296875 -26.8828125 2.97296875 -26.8828125 2.29296875 C-18.80568574 -2.49347674 -8.68788379 -4.23189897 0 0 Z " fill="#F0B050" transform="translate(266.8828125,282.70703125)"/>
<path d="M0 0 C0 0.66 0 1.32 0 2 C0.76957031 2.12568359 0.76957031 2.12568359 1.5546875 2.25390625 C4.32107251 3.09796302 6.6698255 4.40788493 9.17724609 5.83203125 C15.64050905 9.50032589 21.46793276 12.42662464 29 13 C29.74507813 13.05671875 30.49015625 13.1134375 31.2578125 13.171875 C39.00816617 13.44192217 46.48123849 12.34584101 53 8 C53.99 8 54.98 8 56 8 C56 7.34 56 6.68 56 6 C57.26691507 5.32591692 58.53870749 4.66099503 59.8125 4 C60.52019531 3.62875 61.22789062 3.2575 61.95703125 2.875 C64 2 64 2 67 2 C67 1.34 67 0.68 67 0 C72.03351396 -2.4579237 76.22630775 -3.54902433 81.875 -3.5 C82.57173828 -3.49935547 83.26847656 -3.49871094 83.98632812 -3.49804688 C90.0156641 -3.32417765 94.28334851 -1.66850672 99 2 C99 2.66 99 3.32 99 4 C99.66 4 100.32 4 101 4 C103 7 103 7 103 10 C103.66 10 104.32 10 105 10 C107.54824455 19.09786483 107.16426122 26.43404162 103 35 C100.9375 38 100.9375 38 99 40 C98.34 40 97.68 40 97 40 C97 40.66 97 41.32 97 42 C96.01 42 95.02 42 94 42 C94 42.66 94 43.32 94 44 C93.28714844 44.38671875 92.57429687 44.7734375 91.83984375 45.171875 C90.88207031 45.69265625 89.92429687 46.2134375 88.9375 46.75 C87.93332031 47.29398438 86.92914063 47.83796875 85.89453125 48.3984375 C83.59502901 49.67076668 81.36074725 50.99686755 79.125 52.375 C76.02724199 53.98583416 74.41962954 54.41450055 71 54 C71 54.99 71 55.98 71 57 C69.35 57.66 67.7 58.32 66 59 C66 59.66 66 60.32 66 61 C65.34 61 64.68 61 64 61 C63.30580437 62.65538958 62.64896236 64.32636023 62 66 C61.48695313 67.17820312 60.97390625 68.35640625 60.4453125 69.5703125 C58.92113934 74.16141378 58.73500822 78.60613698 58.69921875 83.40234375 C58.6934935 84.16955246 58.68776825 84.93676117 58.68186951 85.72721863 C58.67098559 88.93822179 58.67850927 92.14830467 58.71508789 95.35913086 C58.87818062 113.82235251 58.87818062 113.82235251 52 121 C50.515 121.495 50.515 121.495 49 122 C49 122.66 49 123.32 49 124 C41.85681285 128.13455794 35.17589267 129.15528918 27 128 C22.53276268 126.52066618 18.1832578 125.02428103 15.73046875 120.828125 C15.48941406 120.22484375 15.24835938 119.6215625 15 119 C14.34 119 13.68 119 13 119 C8.75476078 112.15283997 7.90738606 106.77184824 7.75390625 98.66015625 C7.7209754 97.25324881 7.68776362 95.84634792 7.65429688 94.43945312 C7.606957 92.24979996 7.56245831 90.06017479 7.52319336 87.87036133 C7.48317734 85.73753125 7.43172575 83.60520256 7.37890625 81.47265625 C7.3538501 80.20687744 7.32879395 78.94109863 7.30297852 77.63696289 C6.64297704 69.71428608 4.11426414 64.11426414 -1.5 58.5 C-6.12357149 54.8227035 -11.68607068 52.50219002 -17 50 C-17 49.34 -17 48.68 -17 48 C-17.56976563 47.88011719 -18.13953125 47.76023438 -18.7265625 47.63671875 C-26.81374976 45.3717505 -33.25407177 40.16623593 -37.8125 33.25 C-40.63433161 25.52709244 -40.53488329 17.80583109 -38 10 C-36.84966473 7.6429865 -35.70955254 6.03009364 -34 4 C-33.34 4 -32.68 4 -32 4 C-32 3.34 -32 2.68 -32 2 C-31.34 2 -30.68 2 -30 2 C-30 1.34 -30 0.68 -30 0 C-20.2215725 -5.35485315 -9.87654089 -5.04800979 0 0 Z " fill="#6B0711" transform="translate(263,113)"/>
<path d="M0 0 C5.5137957 3.88919518 5.5137957 3.88919518 6.47265625 6.796875 C6.56417969 7.39371094 6.65570313 7.99054688 6.75 8.60546875 C7.41 8.60546875 8.07 8.60546875 8.75 8.60546875 C11.60132794 15.02095661 11.87217418 22.41644353 10.0625 29.171875 C7.9339297 34.41347937 5.0936955 38.00112567 0.75 41.60546875 C-0.24 41.60546875 -1.23 41.60546875 -2.25 41.60546875 C-2.25 42.26546875 -2.25 42.92546875 -2.25 43.60546875 C-10.13991989 46.29139892 -17.33727027 46.5914045 -25.25 43.60546875 C-28.6875 41.60546875 -28.6875 41.60546875 -31.25 39.60546875 C-31.25 38.94546875 -31.25 38.28546875 -31.25 37.60546875 C-31.91 37.60546875 -32.57 37.60546875 -33.25 37.60546875 C-38.09406024 29.16742833 -39.44109898 22.37852404 -38.25 12.60546875 C-37.10040603 9.35703101 -35.57562339 7.12119759 -33.25 4.60546875 C-32.38375 3.61546875 -31.5175 2.62546875 -30.625 1.60546875 C-28.25 -0.39453125 -28.25 -0.39453125 -25.25 -0.39453125 C-25.25 -1.05453125 -25.25 -1.71453125 -25.25 -2.39453125 C-15.81391166 -5.0432578 -8.49588891 -5.26568115 0 0 Z " fill="#F0B052" transform="translate(370.25,343.39453125)"/>
<path d="M0 0 C6.79510673 4.02456965 11.13733699 8.43950927 13.48046875 16.0546875 C14.22829672 23.71992416 13.16102204 29.32552762 10.73046875 36.6171875 C10.07046875 36.6171875 9.41046875 36.6171875 8.73046875 36.6171875 C8.73046875 37.6071875 8.73046875 38.5971875 8.73046875 39.6171875 C8.07046875 39.6171875 7.41046875 39.6171875 6.73046875 39.6171875 C6.73046875 40.2771875 6.73046875 40.9371875 6.73046875 41.6171875 C5.27242706 42.43021075 3.8140256 43.24258881 2.35546875 44.0546875 C1.54335937 44.50714844 0.73125 44.95960938 -0.10546875 45.42578125 C-3.87681669 47.50206486 -6.16377105 47.77982586 -10.51953125 47.8046875 C-11.6384375 47.81886719 -12.75734375 47.83304687 -13.91015625 47.84765625 C-17.34717709 47.61186063 -20.0648357 46.84565413 -23.26953125 45.6171875 C-23.26953125 44.9571875 -23.26953125 44.2971875 -23.26953125 43.6171875 C-24.01203125 43.3903125 -24.75453125 43.1634375 -25.51953125 42.9296875 C-30.11499208 40.73639937 -32.1123393 37.34055005 -33.95703125 32.7421875 C-36.7890398 24.41732721 -36.64315781 17.46334174 -32.76953125 9.5546875 C-32.27453125 8.9153125 -31.77953125 8.2759375 -31.26953125 7.6171875 C-30.60953125 7.6171875 -29.94953125 7.6171875 -29.26953125 7.6171875 C-28.60953125 6.2971875 -27.94953125 4.9771875 -27.26953125 3.6171875 C-26.60953125 3.6171875 -25.94953125 3.6171875 -25.26953125 3.6171875 C-25.26953125 2.9571875 -25.26953125 2.2971875 -25.26953125 1.6171875 C-17.94947954 -2.66772082 -7.80667764 -3.30174896 0 0 Z " fill="#6B0812" transform="translate(213.26953125,376.3828125)"/>
<path d="M0 0 C4.20743303 2.1535313 7.11085086 4.74256386 10.125 8.375 C10.125 9.365 10.125 10.355 10.125 11.375 C10.785 11.375 11.445 11.375 12.125 11.375 C14.89247801 17.7747929 15.26603093 24.64928597 13.2265625 31.30859375 C12.26662284 33.70844289 11.254399 36.05065651 10.125 38.375 C9.465 38.375 8.805 38.375 8.125 38.375 C8.125 39.035 8.125 39.695 8.125 40.375 C7.465 40.375 6.805 40.375 6.125 40.375 C6.125 41.035 6.125 41.695 6.125 42.375 C-2.25166605 47.18382681 -9.14542488 48.88528325 -18.875 47.375 C-24.42810649 45.20148445 -29.20389214 42.04072114 -32.4375 36.9375 C-35.78591286 28.63925944 -36.27945665 23.10986464 -34.125 14.3125 C-32.56326179 10.6424152 -30.59144117 7.31781126 -27.875 4.375 C-27.215 4.375 -26.555 4.375 -25.875 4.375 C-25.875 3.715 -25.875 3.055 -25.875 2.375 C-17.60802182 -2.30127049 -8.99526558 -3.60416365 0 0 Z " fill="#E07807" transform="translate(413.875,191.625)"/>
<path d="M0 0 C1.10601562 0.07863281 2.21203125 0.15726562 3.3515625 0.23828125 C6.15213731 0.65438733 7.96771657 1.24900136 10.375 2.6875 C10.375 3.3475 10.375 4.0075 10.375 4.6875 C10.931875 4.89375 11.48875 5.1 12.0625 5.3125 C16.83594197 8.1507628 19.69685224 12.48749955 21.375 17.6875 C22.25948701 26.76210703 21.42614697 33.11077955 16.375 40.6875 C15.715 40.6875 15.055 40.6875 14.375 40.6875 C14.375 41.3475 14.375 42.0075 14.375 42.6875 C13.715 42.6875 13.055 42.6875 12.375 42.6875 C12.375 43.3475 12.375 44.0075 12.375 44.6875 C4.25018173 49.26694302 -2.46477729 50.728591 -11.60546875 48.359375 C-14.24694418 47.48058627 -16.42269812 46.39250791 -18.625 44.6875 C-18.625 44.0275 -18.625 43.3675 -18.625 42.6875 C-19.49125 42.4090625 -19.49125 42.4090625 -20.375 42.125 C-24.21048809 39.67454927 -25.6197826 35.6979348 -27.625 31.6875 C-27.74972772 29.23645534 -27.81016331 26.82618652 -27.8125 24.375 C-27.82667969 23.05886719 -27.84085937 21.74273437 -27.85546875 20.38671875 C-27.64236646 16.96624633 -27.11624982 14.73483659 -25.625 11.6875 C-24.965 11.6875 -24.305 11.6875 -23.625 11.6875 C-23.625 10.6975 -23.625 9.7075 -23.625 8.6875 C-22.965 8.6875 -22.305 8.6875 -21.625 8.6875 C-21.439375 8.11 -21.25375 7.5325 -21.0625 6.9375 C-18.45089631 2.84977248 -14.38665864 1.08277521 -9.8046875 0.0546875 C-6.436835 -0.33422913 -3.37793253 -0.26501344 0 0 Z " fill="#6D0C16" transform="translate(299.625,75.3125)"/>
<path d="M0 0 C0 0.66 0 1.32 0 2 C0.75667969 2.24492188 1.51335937 2.48984375 2.29296875 2.7421875 C7.20875296 5.02628925 9.16570512 9.04375952 11 14 C11.98760094 21.01057568 12.52888249 28.46363474 8.75 34.75 C7.37109375 36.515625 7.37109375 36.515625 6 38 C5.278125 38.825 4.55625 39.65 3.8125 40.5 C2 42 2 42 0 42 C0 42.66 0 43.32 0 44 C-6.83579464 47.31834691 -16.29933987 47.17340843 -23.61328125 45.34765625 C-29.78622567 42.55484839 -33.51910992 37.51751314 -36.875 31.8125 C-38.98345583 24.66717748 -39.06426862 16.89460439 -36 10 C-35.34 10 -34.68 10 -34 10 C-33.90976563 9.41476563 -33.81953125 8.82953125 -33.7265625 8.2265625 C-32.33914271 3.97479216 -28.53717858 1.5256473 -25 -1 C-16.49814715 -4.62115955 -8.23306715 -3.65914095 0 0 Z " fill="#F0AF50" transform="translate(157,113)"/>
<path d="M0 0 C4.81897695 3.69807938 8.02303334 7.44251746 9.9375 13.25 C10.74601103 20.55769586 11.39260046 28.12863567 7.1875 34.5 C6.13912212 35.77945885 5.06003751 37.03508409 3.9375 38.25 C3.339375 39.03375 2.74125 39.8175 2.125 40.625 C-2.88849414 44.34930993 -9.91083115 46.03415197 -16.0625 46.25 C-22.09368653 45.08422752 -27.29039193 43.14303553 -32.0625 39.25 C-32.0625 38.59 -32.0625 37.93 -32.0625 37.25 C-32.7225 37.25 -33.3825 37.25 -34.0625 37.25 C-34.71084654 35.980447 -35.35607815 34.70930294 -36 33.4375 C-36.35964844 32.72980469 -36.71929687 32.02210938 -37.08984375 31.29296875 C-39.92211615 25.34405925 -40.23027011 18.77344431 -38.15625 12.515625 C-34.79376135 5.40266824 -31.06087495 0.05301131 -23.5 -2.6875 C-15.43577154 -4.70355711 -7.1343211 -4.54108925 0 0 Z " fill="#E07704" transform="translate(110.0625,263.75)"/>
<path d="M0 0 C0.66 0 1.32 0 2 0 C2 0.66 2 1.32 2 2 C1.01 2.495 1.01 2.495 0 3 C-0.309375 4.093125 -0.61875 5.18625 -0.9375 6.3125 C-2 10 -2 10 -3.54101562 11.83374023 C-5.51300586 14.76169696 -5.38410868 16.83750286 -5.40625 20.34765625 C-5.42816406 21.59353516 -5.45007813 22.83941406 -5.47265625 24.12304688 C-5.48167969 25.42306641 -5.49070313 26.72308594 -5.5 28.0625 C-5.56470379 37.19035676 -6.04958081 45.31002299 -9 54 C-9.66 54 -10.32 54 -11 54 C-10.34 56.31 -9.68 58.62 -9 61 C-11.35805384 63.73534246 -13.06163236 65.02577353 -16.4375 66.4375 C-20.23373681 68.10251614 -22.1453889 70.06609415 -25 73 C-25.99 73 -26.98 73 -28 73 C-28 72.34 -28 71.68 -28 71 C-27.01 71 -26.02 71 -25 71 C-25 70.34 -25 69.68 -25 69 C-23.8269685 67.9788076 -22.60971147 67.00818725 -21.375 66.0625 C-14.52801857 60.2474218 -11.1435354 52.59083579 -9 44 C-8.82635609 41.62177571 -8.73836235 39.23608839 -8.7265625 36.8515625 C-8.70627247 35.50259589 -8.68542166 34.15363761 -8.6640625 32.8046875 C-8.64154111 30.71607343 -8.62500784 28.62779222 -8.61914062 26.5390625 C-8.580385 18.32286974 -8.33888812 11.21988996 -4 4 C-3.34 4 -2.68 4 -2 4 C-1.34 2.68 -0.68 1.36 0 0 Z " fill="#EABA71" transform="translate(181,91)"/>
<path d="M0 0 C0 0.33 0 0.66 0 1 C-0.61746094 1.01417969 -1.23492187 1.02835938 -1.87109375 1.04296875 C-9.61557937 1.47911178 -15.55706137 3.45193348 -21.046875 9.109375 C-22.25909651 10.5219637 -23.44329255 11.95938834 -24.58984375 13.42578125 C-25.05519531 13.94527344 -25.52054687 14.46476563 -26 15 C-26.66 15 -27.32 15 -28 15 C-28.0544452 17.20805524 -28.09299283 19.41650554 -28.125 21.625 C-28.14820313 22.85476562 -28.17140625 24.08453125 -28.1953125 25.3515625 C-28.00186659 28.9651321 -27.27563444 31.63696376 -26 35 C-25.63893903 36.66088045 -25.29537827 38.32618981 -25 40 C-27.91926455 38.54036773 -28.29786556 36.26133294 -29.32421875 33.30859375 C-31.49397886 25.89629187 -31.35592731 20.03085912 -28 13 C-26.48583827 10.42260244 -24.92309486 8.31757586 -23 6 C-22.34 6 -21.68 6 -21 6 C-21 5.34 -21 4.68 -21 4 C-13.94912244 0.01162482 -8.01426231 -0.48817841 0 0 Z " fill="#DD9E57" transform="translate(409,190)"/>
<path d="M0 0 C-0.7830791 4.08446937 -2.17669894 6.22579747 -5.37890625 8.85546875 C-11.95786311 11.72824723 -21.20355909 10.29120145 -27.8828125 8.01953125 C-30.0625 6.9375 -30.0625 6.9375 -33 5 C-30.18515955 3.59257978 -28.43063887 4.33347836 -25.375 4.9375 C-23.87066406 5.22947266 -23.87066406 5.22947266 -22.3359375 5.52734375 C-21.56507813 5.68332031 -20.79421875 5.83929688 -20 6 C-20 6.66 -20 7.32 -20 8 C-19.31292969 7.7834375 -18.62585938 7.566875 -17.91796875 7.34375 C-17.01691406 7.0653125 -16.11585938 6.786875 -15.1875 6.5 C-14.29417969 6.2215625 -13.40085938 5.943125 -12.48046875 5.65625 C-10 5 -10 5 -7 5 C-7 3.35 -7 1.7 -7 0 C-4.3333581 -1.33332095 -2.83319697 -0.67102033 0 0 Z " fill="#D38B45" transform="translate(168,325)"/>
<path d="M0 0 C0.66 0 1.32 0 2 0 C1.69255859 0.80050781 1.69255859 0.80050781 1.37890625 1.6171875 C1.10949219 2.36226563 0.84007812 3.10734375 0.5625 3.875 C0.29566406 4.59429687 0.02882812 5.31359375 -0.24609375 6.0546875 C-2.66144598 15.49083041 -2.06167661 25.3319153 -1.87304688 34.98632812 C-1.81350161 40.74820811 -2.01844444 45.56820653 -4 51 C-4.33 51 -4.66 51 -5 51 C-4.93074556 45.32534497 -4.84259821 39.65140041 -4.73754883 33.97729492 C-4.704461 32.05029231 -4.67637972 30.12319654 -4.65356445 28.19604492 C-4.61971963 25.41284791 -4.5673914 22.63049229 -4.51171875 19.84765625 C-4.50532883 18.99728287 -4.4989389 18.14690948 -4.49235535 17.27076721 C-4.36259833 11.8942847 -4.04907531 4.04907531 0 0 Z " fill="#D99248" transform="translate(177,268)"/>
<path d="M0 0 C1.24935275 0.95327633 2.48713142 1.92323508 3.6875 2.9375 C1.35432784 3.71522405 -0.92685923 4.36165568 -3.3125 4.9375 C-3.9725 2.9575 -4.6325 0.9775 -5.3125 -1.0625 C-7.35409095 -1.0897616 -9.39578963 -1.10901345 -11.4375 -1.125 C-13.14292969 -1.14240234 -13.14292969 -1.14240234 -14.8828125 -1.16015625 C-18.14898666 -1.06715585 -21.13243002 -0.81380925 -24.3125 -0.0625 C-24.621875 0.5975 -24.93125 1.2575 -25.25 1.9375 C-25.600625 2.5975 -25.95125 3.2575 -26.3125 3.9375 C-29.9375 4.6875 -29.9375 4.6875 -33.3125 4.9375 C-29.96147982 -0.08903026 -27.07963352 -2.19173746 -21.19140625 -3.6484375 C-13.46679901 -4.75943936 -6.60537956 -4.38281474 0 0 Z " fill="#E29B53" transform="translate(110.3125,264.0625)"/>
<path d="M0 0 C4.15061825 2.54697029 7.3267158 4.88725507 10 9 C10 10.32 10 11.64 10 13 C10.66 13 11.32 13 12 13 C12 18.94 12 24.88 12 31 C11.34 31 10.68 31 10 31 C9.855625 31.78375 9.71125 32.5675 9.5625 33.375 C9 36 9 36 8 38 C7.34 38 6.68 38 6 38 C5.67 38.66 5.34 39.32 5 40 C5 39.01 5 38.02 5 37 C5.66 37 6.32 37 7 37 C7.33 34.69 7.66 32.38 8 30 C8.66 30 9.32 30 10 30 C10 25.05 10 20.1 10 15 C9.34 15 8.68 15 8 15 C8 13.02 8 11.04 8 9 C7.01 8.67 6.02 8.34 5 8 C5 7.34 5 6.68 5 6 C4.34 6 3.68 6 3 6 C3 5.34 3 4.68 3 4 C2.34 4 1.68 4 1 4 C0.67 2.68 0.34 1.36 0 0 Z " fill="#ECC181" transform="translate(257,171)"/>
<path d="M0 0 C0.33 0.66 0.66 1.32 1 2 C1.66 2 2.32 2 3 2 C5.78371421 6.71316692 6.46599218 10.62135133 6.375 16 C6.38660156 16.68578125 6.39820313 17.3715625 6.41015625 18.078125 C6.37887339 23.54219806 5.21300486 27.68469078 1.39453125 31.6796875 C-0.0703125 32.78645833 -1.53515625 33.89322917 -3 35 C-2.62784793 31.77468206 -1.80877626 30.79921507 0.5 28.375 C3.65549366 24.67709401 3.77408257 21.34607527 3.8125 16.625 C3.83763672 15.88894531 3.86277344 15.15289062 3.88867188 14.39453125 C3.94703593 12.59691851 3.97650538 10.7984065 4 9 C3.01 9.33 2.02 9.66 1 10 C1.33 8.02 1.66 6.04 2 4 C1.34 4 0.68 4 0 4 C0 2.68 0 1.36 0 0 Z " fill="#E9B870" transform="translate(369,289)"/>
<path d="M0 0 C2 2 2 2 2.625 4.0625 C3.80031161 6.16973969 3.80031161 6.16973969 5.87109375 6.4453125 C7.9099985 6.670646 9.95511153 6.83770726 12 7 C12.33 7.33 12.66 7.66 13 8 C17.78252409 8.19130096 22.28211812 7.77026643 27 7 C27 6.01 27 5.02 27 4 C29.31 4 31.62 4 34 4 C28.17828985 9.29246377 22.21204816 10.43582238 14.546875 10.25 C7.25364223 9.53409985 0.80672263 6.39855283 -5 2 C-5 1.67 -5 1.34 -5 1 C-2.625 0.375 -2.625 0.375 0 0 Z " fill="#EABD74" transform="translate(227,208)"/>
<path d="M0 0 C0.309375 0.639375 0.61875 1.27875 0.9375 1.9375 C1.8345163 3.93610821 1.8345163 3.93610821 3 5 C3.81156081 13.62925416 4.35772667 21.24116981 -1.34375 28.30078125 C-4.3287929 31.3632663 -7.45559298 33.63706199 -11 36 C-13.1875 35.625 -13.1875 35.625 -15 35 C-11.48508814 32.23828354 -8.24004809 30.41334936 -4 29 C-4 28.34 -4 27.68 -4 27 C-3.34 27 -2.68 27 -2 27 C-2 25.68 -2 24.36 -2 23 C-1.34 23 -0.68 23 0 23 C0.93619813 19.84493858 1.1057123 17.03413498 1.0625 13.75 C1.05347656 12.85796875 1.04445313 11.9659375 1.03515625 11.046875 C1.02355469 10.37140625 1.01195312 9.6959375 1 9 C0.34 8.67 -0.32 8.34 -1 8 C-0.67 5.36 -0.34 2.72 0 0 Z " fill="#DD9C54" transform="translate(419,261)"/>
<path d="M0 0 C0.66 0.33 1.32 0.66 2 1 C1.67 2.65 1.34 4.3 1 6 C-0.65 6.33 -2.3 6.66 -4 7 C-4.05865035 10.18742115 -4.09381259 13.37470118 -4.125 16.5625 C-4.14175781 17.45775391 -4.15851563 18.35300781 -4.17578125 19.27539062 C-4.21479596 24.60089905 -3.75475782 28.96370689 -2 34 C-5.45119303 31.69920465 -5.87254971 30.89049748 -7 27 C-7.21447731 24.30649927 -7.32498534 21.75184159 -7.3125 19.0625 C-7.32861328 18.37220703 -7.34472656 17.68191406 -7.36132812 16.97070312 C-7.36718537 10.79131185 -5.34954371 7.02431556 -2 2 C-1.34 2 -0.68 2 0 2 C0 1.34 0 0.68 0 0 Z " fill="#E9C07E" transform="translate(132,175)"/>
<path d="M0 0 C0.66 0 1.32 0 2 0 C2 0.66 2 1.32 2 2 C1.01 2.495 1.01 2.495 0 3 C-0.309375 4.093125 -0.61875 5.18625 -0.9375 6.3125 C-2 10 -2 10 -3.53442383 11.80957031 C-5.55493524 14.82939847 -5.43251517 17.12269179 -5.51171875 20.734375 C-5.54716797 22.02988281 -5.58261719 23.32539062 -5.61914062 24.66015625 C-5.64223867 26.02343226 -5.66502114 27.38671364 -5.6875 28.75 C-5.72068648 30.12893862 -5.75517738 31.5078465 -5.79101562 32.88671875 C-5.87352291 36.25773059 -5.94266771 39.62848128 -6 43 C-6.33 43 -6.66 43 -7 43 C-7.07460234 38.57091622 -7.12881371 34.1421731 -7.16479492 29.71264648 C-7.17980722 28.20834983 -7.20022353 26.70409639 -7.22631836 25.19995117 C-7.26303816 23.02772304 -7.27980161 20.85607749 -7.29296875 18.68359375 C-7.3086792 17.37962646 -7.32438965 16.07565918 -7.34057617 14.73217773 C-6.95200103 10.47400703 -5.86840524 7.80792624 -4 4 C-3.34 4 -2.68 4 -2 4 C-1.34 2.68 -0.68 1.36 0 0 Z " fill="#E8B05A" transform="translate(181,91)"/>
<path d="M0 0 C3.94727588 -0.17942163 6.5980513 -0.09350689 10 2 C8.52307692 6.67692308 8.52307692 6.67692308 5.875 8.3125 C4.946875 8.6528125 4.946875 8.6528125 4 9 C4 9.66 4 10.32 4 11 C3.01 11 2.02 11 1 11 C1 10.34 1 9.68 1 9 C0.34 8.67 -0.32 8.34 -1 8 C-0.34 7.34 0.32 6.68 1 6 C1.33 5.01 1.66 4.02 2 3 C1.34 3 0.68 3 0 3 C0 2.01 0 1.02 0 0 Z " fill="#71151B" transform="translate(308,226)"/>
<path d="M0 0 C0.5625 1.9375 0.5625 1.9375 1 4 C0.67 4.33 0.34 4.66 0 5 C-0.23075082 6.34747084 -0.41153063 7.70377565 -0.5625 9.0625 C-0.706875 10.361875 -0.85125 11.66125 -1 13 C-1.66 13 -2.32 13 -3 13 C-3 25.87 -3 38.74 -3 52 C-5.26115957 47.47768086 -5.20282009 44.18364204 -5.046875 39.2890625 C-5.02659241 38.44330658 -5.00630981 37.59755066 -4.9854126 36.72616577 C-4.93989596 34.93905083 -4.88913348 33.15206286 -4.83349609 31.36523438 C-4.75052088 28.64209457 -4.68850346 25.91905289 -4.62890625 23.1953125 C-4.58198864 21.45569474 -4.53385137 19.71610936 -4.484375 17.9765625 C-4.46654968 17.16700104 -4.44872437 16.35743958 -4.43035889 15.52334595 C-4.27506862 10.9962248 -3.69585292 7.26524942 -2 3 C-1.34 3 -0.68 3 0 3 C0 2.01 0 1.02 0 0 Z " fill="#D88D43" transform="translate(328,176)"/>
<path d="M0 0 C2.31 0 4.62 0 7 0 C5.6875 1.5 5.6875 1.5 4 3 C3.01 3 2.02 3 1 3 C1 3.66 1 4.32 1 5 C-1.64738916 6.4606285 -2.89448334 7 -6 7 C-6 7.66 -6 8.32 -6 9 C-12.625 12.875 -12.625 12.875 -16 14 C-16.33 14.99 -16.66 15.98 -17 17 C-17.33 17 -17.66 17 -18 17 C-18 15.02 -18 13.04 -18 11 C-16.02 10.67 -14.04 10.34 -12 10 C-12 9.34 -12 8.68 -12 8 C-11.21753906 7.67386719 -10.43507812 7.34773438 -9.62890625 7.01171875 C-8.61699219 6.57472656 -7.60507813 6.13773437 -6.5625 5.6875 C-5.55316406 5.25824219 -4.54382813 4.82898438 -3.50390625 4.38671875 C-0.68979416 3.19721777 -0.68979416 3.19721777 0 0 Z " fill="#D99342" transform="translate(197,251)"/>
<path d="M0 0 C7.32627475 -0.47266289 12.37384327 0.90133798 19 4 C19 4.66 19 5.32 19 6 C19.556875 6.185625 20.11375 6.37125 20.6875 6.5625 C23.98653599 8.6132521 26.29453313 11.50340354 28 15 C27.67 15.99 27.34 16.98 27 18 C26.67 16.68 26.34 15.36 26 14 C25.34 14 24.68 14 24 14 C23.67 13.34 23.34 12.68 23 12 C22.01 11.67 21.02 11.34 20 11 C20 10.34 20 9.68 20 9 C19.34 9 18.68 9 18 9 C17.93039063 8.37480469 17.86078125 7.74960938 17.7890625 7.10546875 C17.20255935 4.81131312 17.20255935 4.81131312 14.9609375 3.98828125 C14.10757813 3.76527344 13.25421875 3.54226562 12.375 3.3125 C11.02921875 2.95671875 11.02921875 2.95671875 9.65625 2.59375 C6.43579053 1.87388259 3.27995131 1.35651645 0 1 C0 0.67 0 0.34 0 0 Z " fill="#DA9443" transform="translate(192,201)"/>
<path d="M0 0 C0 0.33 0 0.66 0 1 C-0.58007812 1.06058594 -1.16015625 1.12117188 -1.7578125 1.18359375 C-6.20092863 1.66016561 -10.59905423 2.21008666 -15 3 C-15.33 3.99 -15.66 4.98 -16 6 C-17.55859375 7.24609375 -17.55859375 7.24609375 -19.4375 8.4375 C-22.22541523 10.32277055 -23.9005057 11.70151711 -25 15 C-25.66 15 -26.32 15 -27 15 C-27.33 15.66 -27.66 16.32 -28 17 C-28 15.68 -28 14.36 -28 13 C-27.34 13 -26.68 13 -26 13 C-25.90976563 12.41476563 -25.81953125 11.82953125 -25.7265625 11.2265625 C-24.33914271 6.97479216 -20.53717858 4.5256473 -17 2 C-11.41206729 -0.38004541 -5.97158273 -0.21627463 0 0 Z " fill="#EFC988" transform="translate(149,110)"/>
<path d="M0 0 C0.33 0 0.66 0 1 0 C1 5.94 1 11.88 1 18 C1.66 18 2.32 18 3 18 C5.3208055 21.2491277 6.43697042 24.05879291 7 28 C1.9275214 23.47589747 -0.23112173 19.19380203 -1.8125 12.625 C-2.04488411 8.1322406 -1.18286112 4.31108886 0 0 Z " fill="#D99240" transform="translate(78,216)"/>
<path d="M0 0 C2 2 2 2 2.125 4.625 C2.08375 5.40875 2.0425 6.1925 2 7 C2.66 7.33 3.32 7.66 4 8 C3.525625 8.474375 3.05125 8.94875 2.5625 9.4375 C0.31923904 13.11644797 0.26260422 16.7621112 0 21 C-3.30083383 14.76358853 -3.1843161 9.52638379 -1.5703125 2.8203125 C-1 1 -1 1 0 0 Z " fill="#741723" transform="translate(180,388)"/>
<path d="M0 0 C0.66 0.99 1.32 1.98 2 3 C1.67 3.99 1.34 4.98 1 6 C0.34 6 -0.32 6 -1 6 C-1 6.99 -1 7.98 -1 9 C-1.66 9 -2.32 9 -3 9 C-3 9.66 -3 10.32 -3 11 C-4.98 11.99 -6.96 12.98 -9 14 C-9.33 12.68 -9.66 11.36 -10 10 C-9.34 9.67 -8.68 9.34 -8 9 C-8 9.66 -8 10.32 -8 11 C-7.34 11 -6.68 11 -6 11 C-6.020625 10.071875 -6.04125 9.14375 -6.0625 8.1875 C-6 5 -6 5 -5 2 C-3.35 2.33 -1.7 2.66 0 3 C0 2.01 0 1.02 0 0 Z " fill="#6E141F" transform="translate(223,407)"/>
<path d="M0 0 C0.99 0.33 1.98 0.66 3 1 C-0.2862451 5.03200147 -2.84485786 5.66301457 -7.9375 6.25 C-9.14277344 6.39953125 -10.34804687 6.5490625 -11.58984375 6.703125 C-14.42140742 6.94962997 -17.16139122 7.06463625 -20 7 C-20 6.34 -20 5.68 -20 5 C-20.99 5.33 -21.98 5.66 -23 6 C-23 5.34 -23 4.68 -23 4 C-23.66 4 -24.32 4 -25 4 C-25 3.34 -25 2.68 -25 2 C-23.7625 2.350625 -22.525 2.70125 -21.25 3.0625 C-14.23525518 4.64109551 -6.90096218 3.9178446 0 2 C0 1.34 0 0.68 0 0 Z " fill="#D8872E" transform="translate(162,216)"/>
<path d="M0 0 C3.375 0.3125 3.375 0.3125 7 1 C7.66 1.99 8.32 2.98 9 4 C10.92441415 4.50531866 10.92441415 4.50531866 13.1328125 4.51171875 C14.34130859 4.56489258 14.34130859 4.56489258 15.57421875 4.61914062 C16.41597656 4.64169922 17.25773437 4.66425781 18.125 4.6875 C19.39923828 4.73874023 19.39923828 4.73874023 20.69921875 4.79101562 C22.79901105 4.87359173 24.89948564 4.93846978 27 5 C26.67 5.66 26.34 6.32 26 7 C8.78851175 7.75195822 8.78851175 7.75195822 2 3 C1.34 2.01 0.68 1.02 0 0 Z " fill="#E9BC79" transform="translate(126,152)"/>
<path d="M0 0 C2.86766141 2.86766141 2.42362123 5.78057972 2.4375 9.625 C2.44136719 10.346875 2.44523438 11.06875 2.44921875 11.8125 C2.31874874 17.83586553 0.90701176 21.31158589 -3 26 C-3.66 25.01 -4.32 24.02 -5 23 C-4.34 23 -3.68 23 -3 23 C-2.87625 21.906875 -2.7525 20.81375 -2.625 19.6875 C-2 16 -2 16 0 13 C0.24246783 9.79620876 0.24246783 9.79620876 0.125 6.3125 C0.10695312 5.13300781 0.08890625 3.95351562 0.0703125 2.73828125 C0.04710937 1.83464844 0.02390625 0.93101563 0 0 Z " fill="#ECC58E" transform="translate(166,125)"/>
<path d="M0 0 C0.66 0 1.32 0 2 0 C2.28875 0.61875 2.5775 1.2375 2.875 1.875 C3.93720042 4.13325765 3.93720042 4.13325765 6 6 C6.99 5.01 7.98 4.02 9 3 C9.33 3.66 9.66 4.32 10 5 C10.66 5.33 11.32 5.66 12 6 C11.01 7.485 11.01 7.485 10 9 C11.25541557 11.51083114 12.50063488 11.87125446 15 13 C12 14 12 14 9.3125 12.6875 C8.549375 12.130625 7.78625 11.57375 7 11 C7 10.34 7 9.68 7 9 C6.401875 8.7525 5.80375 8.505 5.1875 8.25 C2.66413131 6.80807503 1.49969924 5.47450374 0 3 C0 2.01 0 1.02 0 0 Z " fill="#83343E" transform="translate(274,109)"/>
<path d="M0 0 C0.66796875 1.71875 0.66796875 1.71875 1 4 C-1.30824294 8.76757087 -4.85628667 13.68502934 -9 17 C-11.25 17.75 -11.25 17.75 -13 18 C-13.33 17.34 -13.66 16.68 -14 16 C-13.01 16 -12.02 16 -11 16 C-11 15.34 -11 14.68 -11 14 C-10.01 14 -9.02 14 -8 14 C-8.33 13.01 -8.66 12.02 -9 11 C-8.01 11 -7.02 11 -6 11 C-5.67 9.35 -5.34 7.7 -5 6 C-4.01 6 -3.02 6 -2 6 C-2 4.68 -2 3.36 -2 2 C-1.34 2 -0.68 2 0 2 C0 1.34 0 0.68 0 0 Z " fill="#DE8E3A" transform="translate(119,289)"/>
<path d="M0 0 C1.92392578 -0.00773437 1.92392578 -0.00773437 3.88671875 -0.015625 C7.01234783 0.22672708 8.71149683 0.59062582 11.3125 2.25 C11.3125 3.24 11.3125 4.23 11.3125 5.25 C10.6834375 5.02183594 10.054375 4.79367187 9.40625 4.55859375 C1.44583935 1.88514258 -3.85326836 1.89247216 -11.6875 5.25 C-12.6775 5.25 -13.6675 5.25 -14.6875 5.25 C-14.6875 4.26 -14.6875 3.27 -14.6875 2.25 C-9.63924368 0.60425538 -5.36627458 -0.02170384 0 0 Z " fill="#D98935" transform="translate(350.6875,276.75)"/>
<path d="M0 0 C0.73089844 0.433125 0.73089844 0.433125 1.4765625 0.875 C-2.2734375 2 -2.2734375 2 -4.5234375 0.875 C-4.8534375 1.535 -5.1834375 2.195 -5.5234375 2.875 C-6.5134375 2.545 -7.5034375 2.215 -8.5234375 1.875 C-8.5234375 0.885 -8.5234375 -0.105 -8.5234375 -1.125 C-15.2516002 -1.34762303 -21.06334913 -1.07521536 -27.5234375 0.875 C-27.5234375 0.215 -27.5234375 -0.445 -27.5234375 -1.125 C-18.37869814 -4.59417275 -8.71787438 -4.56499604 0 0 Z " fill="#DA9745" transform="translate(116.5234375,204.125)"/>
<path d="M0 0 C2.64 0.33 5.28 0.66 8 1 C8 1.33 8 1.66 8 2 C10.06242617 2.02717692 12.12495703 2.0464758 14.1875 2.0625 C15.33605469 2.07410156 16.48460937 2.08570313 17.66796875 2.09765625 C20.59300586 2.01192832 23.16316291 1.67849023 26 1 C26 1.66 26 2.32 26 3 C18.1221635 5.68181668 10.90394629 6.00349959 3 3 C1.0625 1.375 1.0625 1.375 0 0 Z " fill="#EDC58A" transform="translate(342,384)"/>
<path d="M0 0 C2.65210177 2.65210177 2.29859444 3.99325599 2.3125 7.6875 C2.24330334 12.91499303 1.48986039 16.43525594 -1 21 C-1.33 21 -1.66 21 -2 21 C-2.24091535 13.7725395 -1.34495828 7.09705662 0 0 Z " fill="#EBBC7C" transform="translate(379,356)"/>
<path d="M0 0 C1.67542976 0.28604898 3.34385343 0.61781233 5 1 C3.35467024 4.29065951 0.23121517 4.89089962 -3.0859375 6.171875 C-7.6757427 7.47621642 -12.27762893 7.70507624 -17 7 C-17.66 6.34 -18.32 5.68 -19 5 C-14.38 5 -9.76 5 -5 5 C-5 4.34 -5 3.68 -5 3 C-4.360625 2.690625 -3.72125 2.38125 -3.0625 2.0625 C-1.06389179 1.1654837 -1.06389179 1.1654837 0 0 Z " fill="#E6BF85" transform="translate(161,212)"/>
<path d="M0 0 C1.37478516 0.01740234 1.37478516 0.01740234 2.77734375 0.03515625 C3.69644531 0.04417969 4.61554688 0.05320312 5.5625 0.0625 C6.27277344 0.07410156 6.98304688 0.08570313 7.71484375 0.09765625 C7.71484375 0.75765625 7.71484375 1.41765625 7.71484375 2.09765625 C6.72484375 2.09765625 5.73484375 2.09765625 4.71484375 2.09765625 C4.71484375 2.75765625 4.71484375 3.41765625 4.71484375 4.09765625 C3.39484375 4.09765625 2.07484375 4.09765625 0.71484375 4.09765625 C0.71484375 4.75765625 0.71484375 5.41765625 0.71484375 6.09765625 C-0.93515625 6.75765625 -2.58515625 7.41765625 -4.28515625 8.09765625 C-4.28515625 7.10765625 -4.28515625 6.11765625 -4.28515625 5.09765625 C-3.62515625 5.09765625 -2.96515625 5.09765625 -2.28515625 5.09765625 C-2.56359375 4.13859375 -2.56359375 4.13859375 -2.84765625 3.16015625 C-3.06421875 2.13921875 -3.06421875 2.13921875 -3.28515625 1.09765625 C-2.28515625 0.09765625 -2.28515625 0.09765625 0 0 Z " fill="#741E28" transform="translate(173.28515625,376.90234375)"/>
<path d="M0 0 C0.6875 1.8125 0.6875 1.8125 1 4 C0.02246356 5.02196992 -0.9805881 6.01979625 -2 7 C-3.25949013 11.37940358 -3.11496297 15.79664869 -3.0625 20.3125 C-3.05798828 21.05306641 -3.05347656 21.79363281 -3.04882812 22.55664062 C-3.03712175 24.37112899 -3.01918898 26.18557534 -3 28 C-6.45292897 24.54707103 -5.9440064 19.70346254 -6 15 C-5.41429881 9.01283229 -3.65034313 4.74544607 0 0 Z " fill="#DDA14E" transform="translate(283,256)"/>
<path d="M0 0 C3.7910119 1.44950455 7.3874638 3.15172566 11 5 C11 5.66 11 6.32 11 7 C11.86625 7.185625 11.86625 7.185625 12.75 7.375 C15.02335767 8.00648824 16.9253529 8.88858191 19 10 C15.65044556 11.11651815 14.32740404 10.99822121 11 10 C9.375 8.5 9.375 8.5 8 7 C7.01 6.67 6.02 6.34 5 6 C5 5.34 5 4.68 5 4 C4.01 4 3.02 4 2 4 C2 3.34 2 2.68 2 2 C1.34 2 0.68 2 0 2 C0 1.34 0 0.68 0 0 Z " fill="#EDBF78" transform="translate(232,157)"/>
<path d="M0 0 C0.33 0 0.66 0 1 0 C1.03738281 1.05058594 1.07476562 2.10117188 1.11328125 3.18359375 C1.45704607 11.00633961 2.12859787 17.63422933 5 25 C5 25.99 5 26.98 5 28 C5.66 28 6.32 28 7 28 C6.67 28.66 6.34 29.32 6 30 C5.34 30 4.68 30 4 30 C-0.31924088 23.52113867 -0.27529541 16.52633173 -0.125 9 C-0.11597656 8.12988281 -0.10695312 7.25976562 -0.09765625 6.36328125 C-0.07434619 4.2420658 -0.03848579 2.12099438 0 0 Z " fill="#E8AC62" transform="translate(221,123)"/>
<path d="M0 0 C-3.02843502 2.46060345 -6.09389512 4.87203778 -9.1875 7.25 C-9.86167969 7.77078125 -10.53585937 8.2915625 -11.23046875 8.828125 C-13 10 -13 10 -15 10 C-15.33 8.35 -15.66 6.7 -16 5 C-12.86650268 3.95550089 -12.01031744 4.06576355 -9 5 C-9 4.34 -9 3.68 -9 3 C-6.04341306 0.15291628 -4.05047276 -0.3375394 0 0 Z " fill="#EFB362" transform="translate(353,332)"/>
<path d="M0 0 C7.44283101 -0.8119452 11.18448392 1.47682083 17 6 C14.66682784 6.77772405 12.38564077 7.42415568 10 8 C9.34 6.02 8.68 4.04 8 2 C7.05125 2.04125 6.1025 2.0825 5.125 2.125 C2 2 2 2 0 0 Z " fill="#DA8C3D" transform="translate(97,261)"/>
<path d="M0 0 C8.27453513 0.13874983 14.46179557 0.64696858 21 6 C20.34 6.66 19.68 7.32 19 8 C18.34 7.67 17.68 7.34 17 7 C17 6.34 17 5.68 17 5 C13.0186217 3.6728739 9.14954773 3.93084087 5 4 C4.67 3.34 4.34 2.68 4 2 C1.98330173 0.86649466 1.98330173 0.86649466 0 0 Z " fill="#87454C" transform="translate(199,258)"/>
<path d="M0 0 C1.67542976 0.28604898 3.34385343 0.61781233 5 1 C5 1.66 5 2.32 5 3 C4.34 3 3.68 3 3 3 C3 3.66 3 4.32 3 5 C2.34 5 1.68 5 1 5 C1 5.66 1 6.32 1 7 C-5.75 11 -5.75 11 -8 11 C-8 10.34 -8 9.68 -8 9 C-7.360625 8.896875 -6.72125 8.79375 -6.0625 8.6875 C-5.0415625 8.3471875 -5.0415625 8.3471875 -4 8 C-3.67 7.01 -3.34 6.02 -3 5 C-0.9375 4.3125 -0.9375 4.3125 1 4 C1 3.34 1 2.68 1 2 C0.34 1.67 -0.32 1.34 -1 1 C-0.67 0.67 -0.34 0.34 0 0 Z " fill="#DC913A" transform="translate(212,240)"/>
<path d="M0 0 C7.66721877 -0.3155715 14.04602549 -0.47698725 21 3 C21.33 3.66 21.66 4.32 22 5 C21.34515625 4.76023438 20.6903125 4.52046875 20.015625 4.2734375 C12.42561159 1.80775518 6.70776191 2.13022879 -1 4 C-0.67 2.68 -0.34 1.36 0 0 Z " fill="#EABB76" transform="translate(188,197)"/>
<path d="M0 0 C-0.1875 1.8125 -0.1875 1.8125 -1 4 C-3.3125 5.875 -3.3125 5.875 -6 7 C-8.3125 6.1875 -8.3125 6.1875 -10 5 C-9.01 5 -8.02 5 -7 5 C-7 3.35 -7 1.7 -7 0 C-4.3333581 -1.33332095 -2.83319697 -0.67102033 0 0 Z " fill="#DB862D" transform="translate(168,325)"/>
<path d="M0 0 C0.33 0.66 0.66 1.32 1 2 C-0.25 3.5 -0.25 3.5 -2 5 C-3.32 5 -4.64 5 -6 5 C-6.66 6.32 -7.32 7.64 -8 9 C-10.31 9 -12.62 9 -15 9 C-11.91730861 6.55586611 -8.71528889 4.66890476 -5.25 2.8125 C-4.26515625 2.28269531 -3.2803125 1.75289063 -2.265625 1.20703125 C-1.51796875 0.80871094 -0.7703125 0.41039062 0 0 Z " fill="#ECBB6F" transform="translate(326,290)"/>
<path d="M0 0 C0.66 0 1.32 0 2 0 C2 0.66 2 1.32 2 2 C2.55171875 2.10441406 3.1034375 2.20882812 3.671875 2.31640625 C6.49588509 3.14560384 8.72554916 4.4279965 11.25 5.9375 C12.14203125 6.46214844 13.0340625 6.98679688 13.953125 7.52734375 C14.62859375 8.01332031 15.3040625 8.49929687 16 9 C16 9.66 16 10.32 16 11 C14.68 11 13.36 11 12 11 C11.34 9.68 10.68 8.36 10 7 C9.01 7 8.02 7 7 7 C7 6.34 7 5.68 7 5 C4.03 4.505 4.03 4.505 1 4 C0.67 2.68 0.34 1.36 0 0 Z " fill="#DF9744" transform="translate(399,246)"/>
<path d="M0 0 C0.56847656 0.19335938 1.13695312 0.38671875 1.72265625 0.5859375 C5.40456472 1.82758276 9.06798362 3.01894625 12.8125 4.0625 C15.45589192 4.83996821 17.58021468 5.73499292 20 7 C14.5610835 7.21755666 10.12919186 7.10428384 5 5 C5 4.34 5 3.68 5 3 C2.525 2.01 2.525 2.01 0 1 C0 0.67 0 0.34 0 0 Z " fill="#834149" transform="translate(185,417)"/>
<path d="M0 0 C1.32 0 2.64 0 4 0 C4.33 0.66 4.66 1.32 5 2 C6.98 2 8.96 2 11 2 C11.061875 2.8971875 11.061875 2.8971875 11.125 3.8125 C11.87739901 6.35100832 11.87739901 6.35100832 15.0625 7.75 C16.5165625 8.36875 16.5165625 8.36875 18 9 C17.67 9.66 17.34 10.32 17 11 C16.01 10.67 15.02 10.34 14 10 C14 9.34 14 8.68 14 8 C13.44828125 7.896875 12.8965625 7.79375 12.328125 7.6875 C9.49106688 6.84971102 7.27539018 5.53590982 4.75 4 C3.85796875 3.46375 2.9659375 2.9275 2.046875 2.375 C1.37140625 1.92125 0.6959375 1.4675 0 1 C0 0.67 0 0.34 0 0 Z " fill="#DC994D" transform="translate(85,244)"/>
<path d="M0 0 C0.66 0.33 1.32 0.66 2 1 C1.67 1.66 1.34 2.32 1 3 C0.34 3 -0.32 3 -1 3 C-1.33 4.98 -1.66 6.96 -2 9 C-3.32 9.33 -4.64 9.66 -6 10 C-6 8.68 -6 7.36 -6 6 C-6.66 5.67 -7.32 5.34 -8 5 C-6.71475739 4.13619741 -5.42157581 3.28419631 -4.125 2.4375 C-3.04605469 1.72400391 -3.04605469 1.72400391 -1.9453125 0.99609375 C-1.30335938 0.66738281 -0.66140625 0.33867187 0 0 Z " fill="#EEBB71" transform="translate(150,164)"/>
<path d="M0 0 C0.33 0 0.66 0 1 0 C1.03738281 0.72445312 1.07476562 1.44890625 1.11328125 2.1953125 C1.49860998 7.86191152 1.984536 12.14903618 5 17 C4.01 17 3.02 17 2 17 C1.67 17.99 1.34 18.98 1 20 C-0.96290189 12.95664616 -0.99939172 7.22533204 0 0 Z " fill="#803230" transform="translate(224,125)"/>
<path d="M0 0 C1.32 0 2.64 0 4 0 C4 0.66 4 1.32 4 2 C4.639375 2.28875 5.27875 2.5775 5.9375 2.875 C8 4 8 4 9 6 C6.03 6 3.06 6 0 6 C-0.33 6.66 -0.66 7.32 -1 8 C-0.67 5.36 -0.34 2.72 0 0 Z " fill="#6E1923" transform="translate(306,78)"/>
<path d="M0 0 C-3.16648005 3.16648005 -6.39406993 3.92931257 -10.83984375 4.125 C-13.56278843 4.125 -16.27854656 4.08716399 -19 4 C-19 3.34 -19 2.68 -19 2 C-16.77149723 1.66225668 -14.54216533 1.3299813 -12.3125 1 C-10.45044922 0.7215625 -10.45044922 0.7215625 -8.55078125 0.4375 C-5.64113629 0.07899589 -2.92299978 -0.08942256 0 0 Z " fill="#8E4E55" transform="translate(264,386)"/>
<path d="M0 0 C0.33 0 0.66 0 1 0 C1.33 3.96 1.66 7.92 2 12 C2.66 12 3.32 12 4 12 C4.309375 13.093125 4.61875 14.18625 4.9375 15.3125 C5.58337897 17.55407994 6.2623117 19.7869351 7 22 C6.34 22 5.68 22 5 22 C4.35165346 20.730447 3.70642185 19.45930294 3.0625 18.1875 C2.70285156 17.47980469 2.34320313 16.77210938 1.97265625 16.04296875 C0.18872545 12.29599764 -0.11077252 9.41566434 -0.0625 5.3125 C-0.05347656 4.31863281 -0.04445313 3.32476562 -0.03515625 2.30078125 C-0.02355469 1.54152344 -0.01195313 0.78226562 0 0 Z " fill="#DB9D50" transform="translate(71,279)"/>
<path d="M0 0 C0.33 0 0.66 0 1 0 C1.09796875 0.85722656 1.1959375 1.71445313 1.296875 2.59765625 C2.19136127 9.43739176 3.34185916 14.19743177 7 20 C6.67 20.99 6.34 21.98 6 23 C1.86364708 17.07122748 -0.28536507 12.98411069 -0.125 5.6875 C-0.10695313 4.61886719 -0.08890625 3.55023438 -0.0703125 2.44921875 C-0.04710938 1.64097656 -0.02390625 0.83273438 0 0 Z " fill="#EAC98C" transform="translate(119,129)"/>
<path d="M0 0 C0 0.99 0 1.98 0 3 C-1.64453125 4.38671875 -1.64453125 4.38671875 -3.8125 5.6875 C-4.52019531 6.12449219 -5.22789062 6.56148438 -5.95703125 7.01171875 C-8 8 -8 8 -11 8 C-11.33 8.66 -11.66 9.32 -12 10 C-12 9.34 -12 8.68 -12 8 C-12.66 7.67 -13.32 7.34 -14 7 C-11.35261084 5.5393715 -10.10551666 5 -7 5 C-7 4.34 -7 3.68 -7 3 C-4.69 2.01 -2.38 1.02 0 0 Z " fill="#803942" transform="translate(326,116)"/>
<path d="M0 0 C-1.98 0.99 -1.98 0.99 -4 2 C-3.34 2.66 -2.68 3.32 -2 4 C-5.07322544 4.91058531 -7.80097361 5.08886184 -11 5 C-11 4.01 -11 3.02 -11 2 C-7.54930647 -0.30046235 -3.95022851 -1.97511426 0 0 Z " fill="#722028" transform="translate(162,335)"/>
<path d="M0 0 C0.66 0.33 1.32 0.66 2 1 C1.67 2.32 1.34 3.64 1 5 C-0.0725 5.103125 -1.145 5.20625 -2.25 5.3125 C-5.99918971 5.99985145 -7.10133762 6.80101475 -10 9 C-12.25 8.6875 -12.25 8.6875 -14 8 C-13.01 8 -12.02 8 -11 8 C-11 7.34 -11 6.68 -11 6 C-9.21385682 4.96953278 -7.42089982 3.95086764 -5.625 2.9375 C-4.62726563 2.36902344 -3.62953125 1.80054688 -2.6015625 1.21484375 C-1.74304688 0.81394531 -0.88453125 0.41304688 0 0 Z " fill="#EBBF74" transform="translate(341,281)"/>
<path d="M0 0 C0.66 0.33 1.32 0.66 2 1 C-0.875 5.875 -0.875 5.875 -2 7 C-4.67058851 7.14115161 -7.32432238 7.04247107 -10 7 C-7.62671491 4.25198568 -5.3518635 3.28917827 -2 2 C-1.34 1.34 -0.68 0.68 0 0 Z " fill="#D88727" transform="translate(182,205)"/>
<path d="M0 0 C1.95216435 1.95216435 2.84826645 3.53199953 4 6 C5.32 6 6.64 6 8 6 C8 6.66 8 7.32 8 8 C8.99 8.33 9.98 8.66 11 9 C6.85701333 8.40165275 3.81805623 6.99335715 0.1875 4.9375 C-0.78832031 4.38964844 -1.76414063 3.84179688 -2.76953125 3.27734375 C-3.50558594 2.85582031 -4.24164063 2.43429688 -5 2 C-5 1.67 -5 1.34 -5 1 C-2.625 0.375 -2.625 0.375 0 0 Z " fill="#EDC688" transform="translate(227,208)"/>
<path d="M0 0 C2.64 1.32 5.28 2.64 8 4 C7.67 4.66 7.34 5.32 7 6 C3.5625 6.75 3.5625 6.75 0 7 C-0.66 6.34 -1.32 5.68 -2 5 C-1.34 4.34 -0.68 3.68 0 3 C0 2.01 0 1.02 0 0 Z " fill="#721D23" transform="translate(235,327)"/>
<path d="M0 0 C5.28 0 10.56 0 16 0 C16.33 0.66 16.66 1.32 17 2 C14.36 2.66 11.72 3.32 9 4 C9 3.34 9 2.68 9 2 C6.03 1.67 3.06 1.34 0 1 C0 0.67 0 0.34 0 0 Z " fill="#E7B362" transform="translate(343,281)"/>
<path d="M0 0 C2.31 0.33 4.62 0.66 7 1 C6.401875 1.433125 5.80375 1.86625 5.1875 2.3125 C2.57798235 4.32555647 0.48240178 6.03519645 -1 9 C-1.66 8.67 -2.32 8.34 -3 8 C-3 7.01 -3 6.02 -3 5 C-2.34 5 -1.68 5 -1 5 C-0.67 3.35 -0.34 1.7 0 0 Z " fill="#EEC079" transform="translate(180,200)"/>
<path d="M0 0 C1.65 0 3.3 0 5 0 C5.33 1.32 5.66 2.64 6 4 C6.99 4 7.98 4 9 4 C9 5.65 9 7.3 9 9 C4.77728219 6.46636932 2.21689838 4.43379675 0 0 Z " fill="#DD953E" transform="translate(281,286)"/>
<path d="M0 0 C1 3 1 3 1 6 C1.33 6.99 1.66 7.98 2 9 C0.125 10.0625 0.125 10.0625 -2 11 C-2.66 10.67 -3.32 10.34 -4 10 C-3.43454163 6.04179141 -2.19097652 3.3340947 0 0 Z " fill="#DF943A" transform="translate(76,269)"/>
<path d="M0 0 C0.99 0 1.98 0 3 0 C1.86280581 3.41158256 0.95657056 4.11854601 -2 6 C-2.66 6 -3.32 6 -4 6 C-4.33 6.99 -4.66 7.98 -5 9 C-5.33 9 -5.66 9 -6 9 C-6 7.02 -6 5.04 -6 3 C-4.02 2.67 -2.04 2.34 0 2 C0 1.34 0 0.68 0 0 Z " fill="#D88332" transform="translate(185,259)"/>
<path d="M0 0 C1.32 0.33 2.64 0.66 4 1 C1.69 3.64 -0.62 6.28 -3 9 C-3.33 7.68 -3.66 6.36 -4 5 C-2.0625 2.25 -2.0625 2.25 0 0 Z " fill="#DB9036" transform="translate(386,196)"/>
<path d="M0 0 C2.31 0 4.62 0 7 0 C7 0.99 7 1.98 7 3 C7.66 3 8.32 3 9 3 C8.67 4.32 8.34 5.64 8 7 C2.25 3.375 2.25 3.375 0 0 Z " fill="#74232E" transform="translate(229,150)"/>
<path d="M0 0 C3.7910119 1.44950455 7.3874638 3.15172566 11 5 C10.67 5.66 10.34 6.32 10 7 C7.36 6.67 4.72 6.34 2 6 C1.34 4.02 0.68 2.04 0 0 Z " fill="#8C4C51" transform="translate(247,334)"/>
<path d="M0 0 C0.309375 0.639375 0.61875 1.27875 0.9375 1.9375 C1.8345163 3.93610821 1.8345163 3.93610821 3 5 C3.07271741 7.35313555 3.08370868 9.70833668 3.0625 12.0625 C3.05347656 13.35285156 3.04445313 14.64320313 3.03515625 15.97265625 C3.02355469 16.97167969 3.01195312 17.97070312 3 19 C2.67 19 2.34 19 2 19 C1.92652344 17.93458984 1.92652344 17.93458984 1.8515625 16.84765625 C1.73941406 15.46900391 1.73941406 15.46900391 1.625 14.0625 C1.55539062 13.14597656 1.48578125 12.22945313 1.4140625 11.28515625 C1.20910156 10.15400391 1.20910156 10.15400391 1 9 C0.34 8.67 -0.32 8.34 -1 8 C-0.67 5.36 -0.34 2.72 0 0 Z " fill="#D88D3C" transform="translate(419,261)"/>
<path d="M0 0 C-3.13164723 2.52940738 -6.27808042 4.44920018 -10 6 C-12.1875 5.578125 -12.1875 5.578125 -14 5 C-5.92255125 -0.74031891 -5.92255125 -0.74031891 0 0 Z " fill="#793737" transform="translate(199,259)"/>
<path d="M0 0 C0.66 0 1.32 0 2 0 C2 0.66 2 1.32 2 2 C1.01 2.495 1.01 2.495 0 3 C-0.309375 3.825 -0.61875 4.65 -0.9375 5.5 C-1.288125 6.325 -1.63875 7.15 -2 8 C-2.99 8.33 -3.98 8.66 -5 9 C-5.73323796 11.01508358 -5.73323796 11.01508358 -6 13 C-6.33 12.34 -6.66 11.68 -7 11 C-6.06421005 8.64018187 -5.06652192 6.30368736 -4 4 C-3.34 4 -2.68 4 -2 4 C-1.34 2.68 -0.68 1.36 0 0 Z " fill="#EBC284" transform="translate(181,91)"/>
<path d="M0 0 C3.06852926 5.31878406 3.27049836 10.07100767 2 16 C-0.61623814 11.63960309 -1.30800296 7.06801989 -0.5625 2.0625 C-0.376875 1.381875 -0.19125 0.70125 0 0 Z " fill="#8B424A" transform="translate(178,393)"/>
<path d="M0 0 C2.02907167 3.3146667 2.12742133 5.4315979 1.625 9.25 C1.51414062 10.14203125 1.40328125 11.0340625 1.2890625 11.953125 C1.19367188 12.62859375 1.09828125 13.3040625 1 14 C0.34 14 -0.32 14 -1 14 C-1.38133299 12.0085944 -1.71325582 10.00720923 -2 8 C-1.67 7.67 -1.34 7.34 -1 7 C-0.63239269 4.67182036 -0.29758419 2.3381615 0 0 Z " fill="#874347" transform="translate(274,358)"/>
<path d="M0 0 C0.66 0 1.32 0 2 0 C0.5682479 5.01113235 -1.98445693 6.94469549 -6 10 C-5.49259538 5.60249328 -2.91706686 3.13051078 0 0 Z " fill="#EBBD7B" transform="translate(372,314)"/>
<path d="M0 0 C0.66 0.33 1.32 0.66 2 1 C1.14285714 9.57142857 1.14285714 9.57142857 -1 13 C-1.66 12.67 -2.32 12.34 -3 12 C-2.01 8.04 -1.02 4.08 0 0 Z " fill="#834046" transform="translate(368,131)"/>
<path d="M0 0 C4.75 0.875 4.75 0.875 7 2 C7.40729228 4.32156597 7.74438677 6.6568787 8 9 C5.06799526 6.14723863 2.35684596 3.34920216 0 0 Z " fill="#DE9C50" transform="translate(110,260)"/>
<path d="M0 0 C0.66 0.33 1.32 0.66 2 1 C-2.75 5 -2.75 5 -5 5 C-5.33 5.99 -5.66 6.98 -6 8 C-7.32 7.67 -8.64 7.34 -10 7 C-3.23076923 1.15384615 -3.23076923 1.15384615 0 0 Z " fill="#DB9043" transform="translate(294,248)"/>
<path d="M0 0 C3.3 0 6.6 0 10 0 C9.67 0.66 9.34 1.32 9 2 C8.34 2 7.68 2 7 2 C7 2.66 7 3.32 7 4 C7.639375 4.12375 8.27875 4.2475 8.9375 4.375 C9.618125 4.58125 10.29875 4.7875 11 5 C11.33 5.66 11.66 6.32 12 7 C7.39104317 5.68315519 3.85859765 3.84801255 0 1 C0 0.67 0 0.34 0 0 Z " fill="#F0C583" transform="translate(210,202)"/>
<path d="M0 0 C1.00186835 3.15696647 0.98848961 5.3910657 0.3125 8.625 C0.16425781 9.40101563 0.01601562 10.17703125 -0.13671875 10.9765625 C-1 13 -1 13 -3.08203125 14.2734375 C-3.71496094 14.51320312 -4.34789062 14.75296875 -5 15 C-3.33333333 10 -1.66666667 5 0 0 Z " fill="#EDBF7C" transform="translate(173,132)"/>
<path d="M0 0 C0.33 0.66 0.66 1.32 1 2 C0.34 2 -0.32 2 -1 2 C-1 2.66 -1 3.32 -1 4 C-2.98 4.99 -4.96 5.98 -7 7 C-7.33 5.68 -7.66 4.36 -8 3 C-7.34 2.67 -6.68 2.34 -6 2 C-6 2.66 -6 3.32 -6 4 C-5.34 4 -4.68 4 -4 4 C-4 3.01 -4 2.02 -4 1 C-2.68 0.67 -1.36 0.34 0 0 Z " fill="#823E45" transform="translate(221,414)"/>
<path d="M0 0 C2 2 2 2 2 6 C2.99 6.33 3.98 6.66 5 7 C5.33 8.65 5.66 10.3 6 12 C5.34 11.67 4.68 11.34 4 11 C4 10.34 4 9.68 4 9 C3.34 9 2.68 9 2 9 C0.4375 6.1875 0.4375 6.1875 -1 3 C-0.67 2.01 -0.34 1.02 0 0 Z " fill="#EBBE7F" transform="translate(279,394)"/>
<path d="M0 0 C0.99 0.33 1.98 0.66 3 1 C3.625 2.9375 3.625 2.9375 4 5 C4.33 5.66 4.66 6.32 5 7 C4.34 7 3.68 7 3 7 C3.33 8.32 3.66 9.64 4 11 C1.38726012 9.69363006 1.02763876 8.71590242 0 6 C-0.125 2.75 -0.125 2.75 0 0 Z " fill="#813D44" transform="translate(130,368)"/>
<path d="M0 0 C0.33 0.99 0.66 1.98 1 3 C0.2884375 3.61875 0.2884375 3.61875 -0.4375 4.25 C-2.16266518 6.182185 -2.56584875 7.48192275 -3 10 C-3.66 10 -4.32 10 -5 10 C-5.33 11.32 -5.66 12.64 -6 14 C-6.36539443 9.71422781 -5.48423598 7.65507938 -3 4.1875 C-2.1646875 3.00220703 -2.1646875 3.00220703 -1.3125 1.79296875 C-0.879375 1.20128906 -0.44625 0.60960937 0 0 Z " fill="#804349" transform="translate(136,347)"/>
<path d="M0 0 C2.86724686 0.57344937 3.8614515 0.8614515 6 3 C6.4140625 5.1640625 6.4140625 5.1640625 6.625 7.625 C6.69976562 8.44226563 6.77453125 9.25953125 6.8515625 10.1015625 C6.92503906 11.04128906 6.92503906 11.04128906 7 12 C6.58621094 11.14148438 6.58621094 11.14148438 6.1640625 10.265625 C5.00532152 8.01035733 3.73124294 5.89143622 2.375 3.75 C1.92898438 3.04359375 1.48296875 2.3371875 1.0234375 1.609375 C0.68570312 1.07828125 0.34796875 0.5471875 0 0 Z " fill="#EDC782" transform="translate(270,344)"/>
<path d="M0 0 C1.32 0.33 2.64 0.66 4 1 C3.01 1.495 3.01 1.495 2 2 C2.33 2.99 2.66 3.98 3 5 C0.36 5 -2.28 5 -5 5 C-5 5.66 -5 6.32 -5 7 C-5.66 6.67 -6.32 6.34 -7 6 C-5.1875 4 -5.1875 4 -3 2 C-2.01 2 -1.02 2 0 2 C0 1.34 0 0.68 0 0 Z " fill="#EEC182" transform="translate(345,341)"/>
<path d="M0 0 C0.33 0 0.66 0 1 0 C1.49230769 6.4 1.49230769 6.4 -1 9.4375 C-1.99 10.2109375 -1.99 10.2109375 -3 11 C-3.33 10.01 -3.66 9.02 -4 8 C-3.34 8 -2.68 8 -2 8 C-1.855625 6.865625 -1.71125 5.73125 -1.5625 4.5625 C-1 1 -1 1 0 0 Z " fill="#EABE75" transform="translate(165,140)"/>
<path d="M0 0 C0 2 0 2 -1.25 3.625 C-3 5 -3 5 -7 5 C-7 5.66 -7 6.32 -7 7 C-7.66 7 -8.32 7 -9 7 C-9 7.66 -9 8.32 -9 9 C-9.66 8.67 -10.32 8.34 -11 8 C-10.67 7.34 -10.34 6.68 -10 6 C-9.34 6 -8.68 6 -8 6 C-8 5.34 -8 4.68 -8 4 C-7.34 4 -6.68 4 -6 4 C-6 3.34 -6 2.68 -6 2 C-2.25 0 -2.25 0 0 0 Z " fill="#85474F" transform="translate(239,111)"/>
<path d="M0 0 C-3.40401948 1.13732426 -5.77456664 0.83989957 -9.25 0.0625 C-10.14203125 -0.13214844 -11.0340625 -0.32679688 -11.953125 -0.52734375 C-12.62859375 -0.68332031 -13.3040625 -0.83929688 -14 -1 C-14 -1.33 -14 -1.66 -14 -2 C-8.64887908 -3.41647318 -4.64323847 -3.09549231 0 0 Z " fill="#894750" transform="translate(219,374)"/>
<path d="M0 0 C2 1.3125 2 1.3125 4 3 C4 3.99 4 4.98 4 6 C4.66 6 5.32 6 6 6 C5.67 7.32 5.34 8.64 5 10 C0.07692308 5.69230769 0.07692308 5.69230769 -0.3125 2.1875 C-0.209375 1.465625 -0.10625 0.74375 0 0 Z " fill="#EFCA8C" transform="translate(373,346)"/>
<path d="M0 0 C2.5 1.3125 2.5 1.3125 5 3 C5 3.99 5 4.98 5 6 C3.35 6.33 1.7 6.66 0 7 C-1.125 2.25 -1.125 2.25 0 0 Z " fill="#F1B766" transform="translate(274,287)"/>
<path d="M0 0 C1.65 0 3.3 0 5 0 C4.01 0.33 3.02 0.66 2 1 C2 1.66 2 2.32 2 3 C-1.465 4.485 -1.465 4.485 -5 6 C-5.33 4.68 -5.66 3.36 -6 2 C-4.02 2 -2.04 2 0 2 C0 1.34 0 0.68 0 0 Z " fill="#DC9646" transform="translate(327,285)"/>
<path d="M0 0 C0.99 0.33 1.98 0.66 3 1 C3 1.99 3 2.98 3 4 C3.66 4 4.32 4 5 4 C5 6.64 5 9.28 5 12 C2.65085508 9.65085508 2.26859643 8.04320554 1.375 4.875 C1.11460938 3.96492188 0.85421875 3.05484375 0.5859375 2.1171875 C0.39257812 1.41851562 0.19921875 0.71984375 0 0 Z " fill="#DA8C39" transform="translate(120,272)"/>
<path d="M0 0 C3.06081203 2.75473082 4.89882863 4.99574049 6 9 C5.625 11.3125 5.625 11.3125 5 13 C3 10 3 10 3 7 C2.34 6.67 1.68 6.34 1 6 C0.375 2.9375 0.375 2.9375 0 0 Z " fill="#DF9A4C" transform="translate(114,268)"/>
<path d="M0 0 C4.85077588 1.11940982 7.777893 2.1334716 11 6 C8.03 5.505 8.03 5.505 5 5 C4.67 4.01 4.34 3.02 4 2 C2.68 2 1.36 2 0 2 C0 1.34 0 0.68 0 0 Z " fill="#DE9751" transform="translate(409,191)"/>
<path d="M0 0 C0 3.99191204 -1.25498212 5.18079244 -4 8 C-6.75 8.8125 -6.75 8.8125 -9 9 C-9 8.34 -9 7.68 -9 7 C-8.01 7 -7.02 7 -6 7 C-6 6.34 -6 5.68 -6 5 C-4.04072937 3.2856382 -2.04119788 1.61594832 0 0 Z " fill="#EDC080" transform="translate(162,155)"/>
<path d="M0 0 C0.99 0.33 1.98 0.66 3 1 C2.38461538 6.53846154 2.38461538 6.53846154 0.4375 8.875 C-0.036875 9.24625 -0.51125 9.6175 -1 10 C-1.33 8.68 -1.66 7.36 -2 6 C-1.34 6 -0.68 6 0 6 C-0.2784375 4.7934375 -0.2784375 4.7934375 -0.5625 3.5625 C-0.706875 2.716875 -0.85125 1.87125 -1 1 C-0.67 0.67 -0.34 0.34 0 0 Z " fill="#72232B" transform="translate(364,141)"/>
<path d="M0 0 C0.99 0.33 1.98 0.66 3 1 C4.1875 3.5625 4.1875 3.5625 5 6 C2.69 5.67 0.38 5.34 -2 5 C-1.34 3.35 -0.68 1.7 0 0 Z " fill="#731B25" transform="translate(227,120)"/>
<path d="M0 0 C4.30333886 -0.36885762 6.46660334 0.58241281 10 3 C10.99 3.66 11.98 4.32 13 5 C7.36529617 5.5497272 4.61012242 3.95047835 0 1 C0 0.67 0 0.34 0 0 Z " fill="#EBC289" transform="translate(287,408)"/>
<path d="M0 0 C0 3.59857954 -0.95830515 5.09451118 -3 8 C-3.66 8 -4.32 8 -5 8 C-5.33 6.68 -5.66 5.36 -6 4 C-5.01 3.67 -4.02 3.34 -3 3 C-3 2.34 -3 1.68 -3 1 C-2.01 0.67 -1.02 0.34 0 0 Z " fill="#772832" transform="translate(143,342)"/>
<path d="M0 0 C1.32 0.33 2.64 0.66 4 1 C3.67 1.66 3.34 2.32 3 3 C2.34 3 1.68 3 1 3 C0.896875 3.5775 0.79375 4.155 0.6875 4.75 C-0.09792798 7.32049158 -1.30504197 8.93657284 -3 11 C-2.67 9.02 -2.34 7.04 -2 5 C-1.34 5 -0.68 5 0 5 C-0.33 4.01 -0.66 3.02 -1 2 C-0.67 1.34 -0.34 0.68 0 0 Z " fill="#ECC382" transform="translate(333,344)"/>
<path d="M0 0 C1.15224028 0.92961422 2.29659176 1.8690125 3.4375 2.8125 C4.07558594 3.33457031 4.71367187 3.85664063 5.37109375 4.39453125 C7 6 7 6 8 9 C7.34 9 6.68 9 6 9 C6 8.34 6 7.68 6 7 C5.01 7.33 4.02 7.66 3 8 C2.01 7.34 1.02 6.68 0 6 C-0.1875 2.875 -0.1875 2.875 0 0 Z " fill="#DF974B" transform="translate(381,231)"/>
<path d="M0 0 C0.99 0.33 1.98 0.66 3 1 C1.5625 3 1.5625 3 -1 5 C-4.02824418 5.35442445 -6.96485939 5.23347235 -10 5 C-10 4.67 -10 4.34 -10 4 C-6.7 3.34 -3.4 2.68 0 2 C0 1.34 0 0.68 0 0 Z " fill="#DE9B4D" transform="translate(162,216)"/>
<path d="M0 0 C1.67542976 0.28604898 3.34385343 0.61781233 5 1 C4 3 4 3 1.93359375 3.8515625 C0.69802734 4.23441406 0.69802734 4.23441406 -0.5625 4.625 C-1.38878906 4.88539063 -2.21507812 5.14578125 -3.06640625 5.4140625 C-3.70449219 5.60742188 -4.34257812 5.80078125 -5 6 C-5 5.01 -5 4.02 -5 3 C-4.360625 2.690625 -3.72125 2.38125 -3.0625 2.0625 C-1.06389179 1.1654837 -1.06389179 1.1654837 0 0 Z " fill="#EBB96E" transform="translate(161,212)"/>
<path d="M0 0 C1.98 0 3.96 0 6 0 C5.01 0.495 5.01 0.495 4 1 C4 1.66 4 2.32 4 3 C3.34 3 2.68 3 2 3 C1.67 3.99 1.34 4.98 1 6 C0.34 5.67 -0.32 5.34 -1 5 C-0.67 3.35 -0.34 1.7 0 0 Z " fill="#7B2E31" transform="translate(325,171)"/>
<path d="M0 0 C3.71888239 0.50712033 6.73454239 1.11608215 10 3 C9.34 3.66 8.68 4.32 8 5 C5.875 4.625 5.875 4.625 4 4 C4 3.34 4 2.68 4 2 C2.68 2 1.36 2 0 2 C0 1.34 0 0.68 0 0 Z " fill="#92575D" transform="translate(206,375)"/>
<path d="M0 0 C1.65 0 3.3 0 5 0 C4.01 0.495 4.01 0.495 3 1 C3 1.66 3 2.32 3 3 C1 4.625 1 4.625 -1 6 C-2.32 5.34 -3.64 4.68 -5 4 C-3.68 4 -2.36 4 -1 4 C-0.67 2.68 -0.34 1.36 0 0 Z " fill="#E1984C" transform="translate(417,231)"/>
<path d="M0 0 C1.32 1.32 2.64 2.64 4 4 C3.01 4.33 2.02 4.66 1 5 C0.67 5.99 0.34 6.98 0 8 C-1 7 -1 7 -1.125 4 C-1 1 -1 1 0 0 Z " fill="#721925" transform="translate(275,222)"/>
<path d="M0 0 C1.65 0 3.3 0 5 0 C3.35 1.98 1.7 3.96 0 6 C-0.66 5.67 -1.32 5.34 -2 5 C-1.34 3.35 -0.68 1.7 0 0 Z " fill="#EFC383" transform="translate(371,379)"/>
<path d="M0 0 C0 0.66 0 1.32 0 2 C-0.99 2 -1.98 2 -3 2 C-3 2.66 -3 3.32 -3 4 C-4.9375 3.625 -4.9375 3.625 -7 3 C-7.33 2.34 -7.66 1.68 -8 1 C-5.29120665 -0.35439668 -2.99066732 -0.06501451 0 0 Z " fill="#732A32" transform="translate(181,377)"/>
<path d="M0 0 C3.29148243 1.13499394 3.9959869 1.99283376 5.75 5.125 C6.1625 6.07375 6.575 7.0225 7 8 C3.64379729 6.61122646 1.92701272 5.08322035 0 2 C0 1.34 0 0.68 0 0 Z " fill="#E3A761" transform="translate(128,321)"/>
<path d="M0 0 C2.475 0.495 2.475 0.495 5 1 C5 1.66 5 2.32 5 3 C5.66 3 6.32 3 7 3 C7 3.99 7 4.98 7 6 C2.32307692 4.52307692 2.32307692 4.52307692 0.6875 1.875 C0.460625 1.25625 0.23375 0.6375 0 0 Z " fill="#803F47" transform="translate(278,232)"/>
<path d="M0 0 C3.465 1.485 3.465 1.485 7 3 C7 3.66 7 4.32 7 5 C8.32 5.33 9.64 5.66 11 6 C8.3333581 7.33332095 6.83319697 6.67102033 4 6 C4 5.01 4 4.02 4 3 C2.68 2.67 1.36 2.34 0 2 C0 1.34 0 0.68 0 0 Z " fill="#DA9742" transform="translate(126,211)"/>
<path d="M0 0 C0.33 0.99 0.66 1.98 1 3 C-0.32 4.32 -1.64 5.64 -3 7 C-3.99 6.67 -4.98 6.34 -6 6 C-5.67 5.34 -5.34 4.68 -5 4 C-4.34 4 -3.68 4 -3 4 C-3 3.34 -3 2.68 -3 2 C-2.01 1.34 -1.02 0.68 0 0 Z " fill="#D9914A" transform="translate(335,169)"/>
<path d="M0 0 C0.66 0.33 1.32 0.66 2 1 C2 2.65 2 4.3 2 6 C-0.475 5.01 -0.475 5.01 -3 4 C-3 3.01 -3 2.02 -3 1 C-2.01 0.67 -1.02 0.34 0 0 Z " fill="#60050E" transform="translate(317,89)"/>
<path d="M0 0 C2.5 1.25 2.5 1.25 5 3 C5 4.32 5 5.64 5 7 C3.0625 6.3125 3.0625 6.3125 1 5 C0.25 2.375 0.25 2.375 0 0 Z " fill="#8A484F" transform="translate(216,379)"/>
<path d="M0 0 C0.33 0 0.66 0 1 0 C1.125 7.75 1.125 7.75 0 10 C-2.5625 10.625 -2.5625 10.625 -5 11 C-4.360625 10.29875 -3.72125 9.5975 -3.0625 8.875 C-0.83613898 5.77158767 -0.34919057 3.75379861 0 0 Z " fill="#D87810" transform="translate(119,281)"/>
<path d="M0 0 C-0.33 1.32 -0.66 2.64 -1 4 C-3.31 4.33 -5.62 4.66 -8 5 C-5.72541886 1.64228499 -4.30291326 0 0 0 Z " fill="#D98A2E" transform="translate(85,264)"/>
<path d="M0 0 C2.375 0.3125 2.375 0.3125 5 1 C5.66 1.99 6.32 2.98 7 4 C5.824375 3.9690625 5.824375 3.9690625 4.625 3.9375 C2.01885039 3.81315937 2.01885039 3.81315937 0 5 C0 3.35 0 1.7 0 0 Z " fill="#DC8729" transform="translate(107,264)"/>
<path d="M0 0 C5.78461538 3.32307692 5.78461538 3.32307692 6.875 6.75 C6.936875 7.86375 6.936875 7.86375 7 9 C6.34 8.67 5.68 8.34 5 8 C5 7.34 5 6.68 5 6 C4.34 6 3.68 6 3 6 C3 5.34 3 4.68 3 4 C2.34 4 1.68 4 1 4 C0.67 2.68 0.34 1.36 0 0 Z " fill="#E9BD7C" transform="translate(257,171)"/>
<path d="M0 0 C-2.88087546 2.40072955 -5.56404834 4.47291037 -9 6 C-9 3 -9 3 -7.3125 1.3125 C-4.6402007 -0.20421041 -3.02346601 -0.2519555 0 0 Z " fill="#E7BB78" transform="translate(353,332)"/>
<path d="M0 0 C0.66 1.32 1.32 2.64 2 4 C0.68 5.32 -0.64 6.64 -2 8 C-2.66 7.67 -3.32 7.34 -4 7 C-2.68 4.69 -1.36 2.38 0 0 Z " fill="#D89146" transform="translate(322,226)"/>
<path d="M0 0 C0.99 0.495 0.99 0.495 2 1 C2 1.66 2 2.32 2 3 C2.66 3 3.32 3 4 3 C4.66 4.98 5.32 6.96 6 9 C3 8 3 8 1.3125 5.0625 C0 2 0 2 0 0 Z " fill="#D98E3E" transform="translate(366,172)"/>
<path d="M0 0 C1.41377341 2.63904371 2.37240135 5.07120629 3 8 C3.66 8 4.32 8 5 8 C4.67 8.66 4.34 9.32 4 10 C3.34 10 2.68 10 2 10 C-0.4294516 6.3558226 -0.16179575 4.28758728 0 0 Z " fill="#EFC582" transform="translate(223,143)"/>
<path d="M0 0 C0 0.66 0 1.32 0 2 C-4.43076923 4.09230769 -4.43076923 4.09230769 -7.3125 3.625 C-7.869375 3.41875 -8.42625 3.2125 -9 3 C-5.92807025 0.26939578 -4.09590633 -0.34132553 0 0 Z " fill="#E9BD73" transform="translate(192,87)"/>
<path d="M0 0 C0.66 0.33 1.32 0.66 2 1 C2.34153937 2.66500443 2.67449498 4.33178677 3 6 C3.66 6.66 4.32 7.32 5 8 C4.01 8 3.02 8 2 8 C0.25 5.6875 0.25 5.6875 -1 3 C-0.67 2.01 -0.34 1.02 0 0 Z " fill="#8F4B57" transform="translate(181,408)"/>
<path d="M0 0 C0.99 0 1.98 0 3 0 C3 0.99 3 1.98 3 3 C2.34 3 1.68 3 1 3 C1 3.66 1 4.32 1 5 C0.34 5 -0.32 5 -1 5 C-1 5.66 -1 6.32 -1 7 C-1.66 6.67 -2.32 6.34 -3 6 C-2.67 5.01 -2.34 4.02 -2 3 C-1.34 3 -0.68 3 0 3 C0 2.01 0 1.02 0 0 Z " fill="#874E54" transform="translate(268,378)"/>
<path d="M0 0 C0.66 0.33 1.32 0.66 2 1 C2 1.66 2 2.32 2 3 C-1.37462715 2.45276317 -3.08235 1.9451 -6 0 C-3.4832097 -1.25839515 -2.62168527 -0.81927665 0 0 Z " fill="#D88B3D" transform="translate(388,294)"/>
<path d="M0 0 C1.32 0 2.64 0 4 0 C3 3 3 3 0 5 C-2.1875 4.625 -2.1875 4.625 -4 4 C-3.34 3.525625 -2.68 3.05125 -2 2.5625 C-1.34 2.046875 -0.68 1.53125 0 1 C0 0.67 0 0.34 0 0 Z " fill="#D68936" transform="translate(408,292)"/>
<path d="M0 0 C3.99996286 1.33332095 4.83782337 3.4957827 7 7 C2.25 5.125 2.25 5.125 0 4 C0 2.68 0 1.36 0 0 Z " fill="#ECB976" transform="translate(362,282)"/>
<path d="M0 0 C5.53846154 0.61538462 5.53846154 0.61538462 7.875 2.5625 C8.431875 3.2740625 8.431875 3.2740625 9 4 C8.01 4.495 8.01 4.495 7 5 C4.5249829 3.88568235 2.32116581 2.41849022 0 1 C0 0.67 0 0.34 0 0 Z " fill="#DB9145" transform="translate(366,284)"/>
<path d="M0 0 C0.99 0.33 1.98 0.66 3 1 C2.34 1 1.68 1 1 1 C0.67 2.98 0.34 4.96 0 7 C-0.66 7 -1.32 7 -2 7 C-2.6875 5.1875 -2.6875 5.1875 -3 3 C-1.5625 1.25 -1.5625 1.25 0 0 Z " fill="#DA780F" transform="translate(422,224)"/>
<path d="M0 0 C2.97 0.33 5.94 0.66 9 1 C5.375 4 5.375 4 2 4 C1.33333333 2.66666667 0.66666667 1.33333333 0 0 Z " fill="#C1681A" transform="translate(334,167)"/>
<path d="M0 0 C1 3 1 3 0.0625 5.1875 C-0.4634375 6.0846875 -0.4634375 6.0846875 -1 7 C-1.66 7 -2.32 7 -3 7 C-3.33 7.66 -3.66 8.32 -4 9 C-4 7.68 -4 6.36 -4 5 C-3.34 5 -2.68 5 -2 5 C-1.7834375 4.0409375 -1.7834375 4.0409375 -1.5625 3.0625 C-1 1 -1 1 0 0 Z " fill="#EFCA90" transform="translate(125,118)"/>
<path d="M0 0 C0.66 0.33 1.32 0.66 2 1 C1.25 5.75 1.25 5.75 -1 8 C-1.04241723 5.66705225 -1.04092937 3.33297433 -1 1 C-0.67 0.67 -0.34 0.34 0 0 Z " fill="#EFC280" transform="translate(323,396)"/>
<path d="M0 0 C0.33 1.65 0.66 3.3 1 5 C-1.91517292 3.92598892 -3.77810176 3.22189824 -6 1 C-3.92446352 0.4465236 -2.15634036 0 0 0 Z " fill="#8C494F" transform="translate(230,377)"/>
<path d="M0 0 C0.66 0 1.32 0 2 0 C4 3 4 3 4 6 C2.02 5.34 0.04 4.68 -2 4 C-1.01 3.67 -0.02 3.34 1 3 C0.67 2.01 0.34 1.02 0 0 Z " fill="#80333A" transform="translate(220,372)"/>
<path d="M0 0 C-0.33 0.66 -0.66 1.32 -1 2 C-3.97 1.67 -6.94 1.34 -10 1 C-6.1496895 -1.56687367 -4.41430237 -0.83288724 0 0 Z " fill="#E8B059" transform="translate(356,342)"/>
<path d="M0 0 C1.65 0 3.3 0 5 0 C2.93243723 2.7972908 1.85559629 3.02692273 -1.6875 3.6875 C-2.780625 3.790625 -3.87375 3.89375 -5 4 C-4.360625 3.71125 -3.72125 3.4225 -3.0625 3.125 C-0.84793921 2.17176549 -0.84793921 2.17176549 0 0 Z " fill="#D78C3E" transform="translate(312,293)"/>
<path d="M0 0 C0.33 0 0.66 0 1 0 C1.36923077 6.4 1.36923077 6.4 -0.5 9.4375 C-0.995 9.953125 -1.49 10.46875 -2 11 C-2 9.02 -2 7.04 -2 5 C-1.34 5 -0.68 5 0 5 C0 3.35 0 1.7 0 0 Z " fill="#D88C35" transform="translate(219,230)"/>
<path d="M0 0 C0.99 0.33 1.98 0.66 3 1 C1.25 5.875 1.25 5.875 -1 7 C-1.04254356 5.00045254 -1.04080783 2.99958364 -1 1 C-0.67 0.67 -0.34 0.34 0 0 Z " fill="#89454E" transform="translate(315,227)"/>
</svg>
