<?xml version="1.0" encoding="UTF-8" standalone="no"?>
<!DOCTYPE svg PUBLIC "-//W3C//DTD SVG 1.1//EN" "http://www.w3.org/Graphics/SVG/1.1/DTD/svg11.dtd">
<svg width="100%" height="100%" viewBox="0 0 1460 1460" version="1.1" xmlns="http://www.w3.org/2000/svg" xmlns:xlink="http://www.w3.org/1999/xlink" xml:space="preserve" xmlns:serif="http://www.serif.com/" style="fill-rule:evenodd;clip-rule:evenodd;stroke-linejoin:round;stroke-miterlimit:2;">
    <g transform="matrix(1.59808,0,0,1.59808,-385.999,-442.778)">
        <circle cx="570.673" cy="1102.67" r="52" style="fill:rgb(218,163,69);"/>
        <circle cx="956.443" cy="1027.17" r="52" style="fill:rgb(118,74,65);"/>
        <circle cx="1083.94" cy="655.336" r="52" style="fill:rgb(247,141,87);"/>
        <circle cx="825.673" cy="359" r="52" style="fill:rgb(218,163,69);"/>
        <circle cx="439.903" cy="434.5" r="52" style="fill:rgb(118,74,65);"/>
        <circle cx="312.403" cy="806.336" r="52" style="fill:rgb(247,141,87);"/>
    </g>
    <g transform="matrix(1.59808,0,0,1.59808,-385.806,-442.778)">
        <path d="M724.173,980.252L646.173,935.219C631.631,926.823 622.673,911.307 622.673,894.516L622.673,805.305C622.673,776.789 600.074,752.932 571.562,752.456C542.436,751.97 518.673,775.434 518.673,804.449L518.673,894.516C518.673,911.307 509.715,926.823 495.173,935.219L417.953,979.801C393.181,994.103 383.837,1026.51 398.14,1051.29C407.772,1067.97 425.249,1077.29 443.221,1077.29C452.043,1077.29 460.984,1075.05 469.172,1070.32L547.173,1025.29C561.715,1016.89 579.631,1016.89 594.173,1025.29L672.173,1070.32C680.363,1075.05 689.302,1077.29 698.125,1077.29C716.095,1077.29 733.575,1067.97 743.206,1051.29C757.566,1026.41 749.044,994.611 724.173,980.252Z" style="fill:rgb(218,163,69);fill-rule:nonzero;"/>
        <path d="M927.173,833.028L849.173,878.061C834.631,886.457 816.715,886.457 802.173,878.061L724.173,833.028C699.046,818.52 666.84,827.37 652.7,852.838C638.859,877.767 648.22,909.265 672.914,923.522L750.173,968.128C764.715,976.524 773.673,992.039 773.673,1008.83L773.673,1098.04C773.673,1126.56 796.272,1150.41 824.784,1150.89C853.91,1151.38 877.673,1127.91 877.673,1098.9L877.673,1008.83C877.673,992.039 886.631,976.524 901.173,968.128L979.173,923.094C1004.04,908.735 1012.57,876.932 998.206,852.061C983.848,827.191 952.047,818.669 927.173,833.028Z" style="fill:rgb(118,74,65);fill-rule:nonzero;"/>
        <path d="M1105.89,758.964L1028.67,714.382C1014.13,705.986 1005.17,690.47 1005.17,673.679L1005.17,584.468C1005.17,555.953 982.574,532.096 954.062,531.62C924.936,531.133 901.173,554.598 901.173,583.612L901.173,673.679C901.173,690.47 892.215,705.986 877.673,714.382L800.453,758.965C775.681,773.267 766.337,805.678 780.64,830.45C790.272,847.132 807.749,856.458 825.722,856.458C834.542,856.458 843.484,854.21 851.673,849.482L929.673,804.449C944.215,796.053 962.131,796.053 976.673,804.449L1054.67,849.482C1062.86,854.211 1071.8,856.458 1080.62,856.458C1098.6,856.458 1116.08,847.128 1125.71,830.443C1140.01,805.672 1130.66,773.264 1105.89,758.964Z" style="fill:rgb(247,141,87);fill-rule:nonzero;"/>
        <path d="M672.173,481.421L750.173,526.454C764.715,534.85 773.673,550.366 773.673,567.158L773.673,656.368C773.673,684.884 796.272,708.741 824.784,709.217C853.91,709.703 877.673,686.239 877.673,657.224L877.673,567.158C877.673,550.366 886.631,534.85 901.173,526.454L978.432,481.849C1003.13,467.592 1012.49,436.094 998.646,411.164C984.506,385.697 952.304,376.847 927.173,391.355L849.173,436.388C834.631,444.784 816.715,444.784 802.173,436.388L724.173,391.355C699.303,376.994 667.499,385.516 653.14,410.388C638.78,435.259 647.302,467.062 672.173,481.421Z" style="fill:rgb(218,163,69);fill-rule:nonzero;"/>
        <path d="M443.221,635.621C452.043,635.621 460.985,633.373 469.173,628.646L547.173,583.612C561.715,575.216 579.631,575.216 594.173,583.612L672.173,628.646C680.362,633.374 689.302,635.621 698.125,635.621C716.097,635.621 733.579,626.292 743.21,609.606C757.506,584.836 748.16,552.428 723.391,538.128L646.173,493.546C631.631,485.15 622.673,469.634 622.673,452.843L622.673,363.631C622.673,335.116 600.074,311.259 571.562,310.783C542.436,310.296 518.673,333.761 518.673,362.775L518.673,452.843C518.673,469.634 509.715,485.15 495.173,493.546L417.954,538.128C393.181,552.431 383.837,584.842 398.141,609.615C407.773,626.296 425.25,635.621 443.221,635.621Z" style="fill:rgb(118,74,65);fill-rule:nonzero;"/>
        <path d="M444.062,930.054C472.574,929.578 495.173,905.721 495.173,877.205L495.173,787.994C495.173,771.203 504.131,755.687 518.673,747.291L596.673,702.257C621.544,687.898 630.066,656.095 615.706,631.224C601.346,606.352 569.542,597.832 544.673,612.191L466.673,657.224C452.131,665.62 434.215,665.62 419.673,657.224L341.673,612.191C316.802,597.831 284.999,606.352 270.64,631.224C256.28,656.095 264.802,687.898 289.673,702.257L367.673,747.291C382.215,755.687 391.173,771.203 391.173,787.994L391.173,878.061C391.173,907.076 414.936,930.54 444.062,930.054Z" style="fill:rgb(247,141,87);fill-rule:nonzero;"/>
    </g>
</svg>
